<svg xmlns="http://www.w3.org/2000/svg" xmlns:xlink="http://www.w3.org/1999/xlink" width="0" height="0" style="position:absolute">
	
		<symbol id="map-marker" viewBox="0 0 12 17">
			<path d="M6 3.825c.568 0 1.113.224 1.515.622a2.116 2.116 0 0 1-.695 3.466 2.158 2.158 0 0 1-2.335-.46 2.116 2.116 0 0 1 0-3.006A2.152 2.152 0 0 1 6 3.825zM6 0c1.591 0 3.117.627 4.243 1.743A5.925 5.925 0 0 1 12 5.95C12 10.412 6 17 6 17S0 10.412 0 5.95c0-1.578.632-3.091 1.757-4.207A6.026 6.026 0 0 1 6 0zm0 1.7a4.304 4.304 0 0 0-3.03 1.245A4.232 4.232 0 0 0 1.714 5.95c0 .85 0 2.55 4.286 8.253C10.286 8.5 10.286 6.8 10.286 5.95A4.232 4.232 0 0 0 9.03 2.945 4.304 4.304 0 0 0 6 1.7z"></path>
		</symbol>
	
</svg>
