<svg xmlns="http://www.w3.org/2000/svg" xmlns:xlink="http://www.w3.org/1999/xlink" width="0" height="0" style="position:absolute">
	
		<symbol id="map-marker" viewBox="0 0 12 17">
			<path d="M6 3.825c.568 0 1.113.224 1.515.622a2.116 2.116 0 0 1-.695 3.466 2.158 2.158 0 0 1-2.335-.46 2.116 2.116 0 0 1 0-3.006A2.152 2.152 0 0 1 6 3.825zM6 0c1.591 0 3.117.627 4.243 1.743A5.925 5.925 0 0 1 12 5.95C12 10.412 6 17 6 17S0 10.412 0 5.95c0-1.578.632-3.091 1.757-4.207A6.026 6.026 0 0 1 6 0zm0 1.7a4.304 4.304 0 0 0-3.03 1.245A4.232 4.232 0 0 0 1.714 5.95c0 .85 0 2.55 4.286 8.253C10.286 8.5 10.286 6.8 10.286 5.95A4.232 4.232 0 0 0 9.03 2.945 4.304 4.304 0 0 0 6 1.7z"></path>
		</symbol>
	
		<symbol id="phone" viewBox="0 0 17 17">
			<path d="M12.115 17C5.435 17 0 11.565 0 4.885A4.918 4.918 0 0 1 4.291.012a1.642 1.642 0 0 1 1.705.98L7.641 4.83a1.634 1.634 0 0 1-.135 1.541L6.248 8.293a5.942 5.942 0 0 0 2.481 2.471l1.891-1.26a1.632 1.632 0 0 1 1.554-.144l3.834 1.644a1.642 1.642 0 0 1 .98 1.705A4.918 4.918 0 0 1 12.115 17zM4.292 2.003a2.951 2.951 0 0 0-2.327 2.882 10.162 10.162 0 0 0 10.15 10.15 2.951 2.951 0 0 0 2.882-2.327l-3.434-1.472-1.902 1.268a1.637 1.637 0 0 1-1.613.116 7.91 7.91 0 0 1-3.653-3.636A1.638 1.638 0 0 1 4.5 7.376l1.266-1.934-1.474-3.44z"></path>
		</symbol>
	
</svg>
