<svg xmlns="http://www.w3.org/2000/svg" xmlns:xlink="http://www.w3.org/1999/xlink" width="0" height="0" style="position:absolute">
	
		<symbol id="adv_montage" viewBox="0 0 98 98">
			<path fill-rule="evenodd" clip-rule="evenodd" d="M69.964 2.412c12.443 3.401 20.602 8.45 24.846 22.015 4.27 13.498 3.533 28.025 1.925 41.906-2.32 13.723-8.871 24.005-21.788 27.762-15.33 5.207-36.564 5.207-51.894 0-12.917-3.757-19.481-14.04-21.788-27.762C-.343 52.453-1.08 37.925 3.19 24.427 7.434 10.862 15.593 5.813 28.036 2.412c12.785-3.216 29.143-3.216 41.928 0z" fill="#E1322D"></path><path d="M22.566 18.837h.751c3.19 1.806 6.445 3.533 9.504 5.55.474 1.134-.106 2.4-.132 3.586 5.39 5.404 10.795 10.796 16.199 16.2 1.107-.724 2.267-1.805 3.704-1.45 2.386.567 4.06 3.032 3.414 5.471 1.49 2.439 4.771 1.516 6.511 3.599 4.745 4.706 9.477 9.438 14.21 14.158 1.29 1.239 2.055 2.9 2.424 4.64v1.265c-.131 3.52-2.754 6.697-6.26 7.303h-2.518c-1.674-.369-3.23-1.2-4.429-2.425-4.547-4.535-9.055-9.11-13.603-13.63-1.634-1.345-2.372-3.349-2.478-5.419l-1.74-1.66c-2.412.593-4.837-1.068-5.39-3.428-.356-1.437.725-2.597 1.436-3.717-5.404-5.392-10.782-10.797-16.2-16.188-1.172.053-2.424.54-3.571.145-2.017-3.058-3.744-6.314-5.55-9.505v-.698c1.16-1.332 2.452-2.544 3.718-3.797zm-1.015 4.456c1.41 2.412 2.781 4.838 4.191 7.25 1.187.013 2.676-.87 3.625.185 5.576 5.484 11.072 11.06 16.621 16.583.435-.448.87-.883 1.318-1.331-5.443-5.445-10.887-10.876-16.318-16.32-1.318-.976-.527-2.636-.461-3.955a563.645 563.645 0 0 1-7.21-4.152c-.593.58-1.186 1.16-1.766 1.74zM44.868 52.03c.54.62 1.041 1.279 1.7 1.767a13.06 13.06 0 0 1 2.36-.343c1.173 1.028 2.32 2.096 3.255 3.322.264 1.239-.079 2.729.962 3.678 4.482 4.6 9.095 9.07 13.603 13.63 1.12 1.107 2.28 2.373 3.915 2.65 2.491.553 5.18-1.16 5.826-3.625.606-1.925-.026-4.087-1.503-5.431-4.613-4.64-9.253-9.267-13.866-13.908-.778-.91-1.859-1.476-3.084-1.423-1.885.105-2.9-1.806-4.152-2.914-1.226-.817.487-2.333-.356-3.23-.501-.487-1.398-1.74-2.096-.843-2.307 2.096-4.534 4.297-6.564 6.67z" fill="#fff"></path><path d="M63.835 18.837h3.348c.91.264 2.267.488 1.911 1.793-2.056 2.874-5.338 4.746-7.104 7.83 2.36 2.716 4.824 5.445 7.79 7.514 2.583-2.346 4.837-5.062 7.552-7.263 1.661-.106 1.569 1.727 1.82 2.9v1.78c-.739 4.758-2.808 9.557-6.525 12.72-3.243 2.624-7.83 1.951-11.257.066-.922 1.068-2.978 2.637-3.572.396.752-1.292 1.806-2.518 3.19-3.15 3.032 1.41 6.841 3.255 9.939.962 3.453-2.861 5.351-7.343 5.72-11.759-2.017 1.74-3.572 4.087-5.931 5.378-3.203.936-5.01-2.504-7.078-4.244-1.622-1.872-4.706-3.586-3.757-6.5 1.186-2.464 3.651-3.98 5.378-6.023-2.715.21-5.378 1.001-7.724 2.412-2.333 1.305-4.798 3.203-5.14 6.064-.449 2.65 1.172 4.917 2.082 7.263-1.186 1.674-2.69 3.164-4.337 4.39-.843.633-1.713-.554-1.608-1.345.883-1.278 2.083-2.294 3.164-3.4-1.767-3.23-2.637-7.436-.409-10.678 2.873-4.06 7.803-6.183 12.548-7.106zM33.796 54.772c2.096-1.977 3.954-4.192 6.195-5.998 1.529-.461 2.056 1.608.857 2.32-2.149 2.03-4.02 4.47-6.446 6.13-2.873-.316-5.984-.474-8.462 1.279-4.903 2.926-6.09 10.282-2.36 14.619 3.454 4.455 10.783 4.838 14.671.764 2.82-2.662 3.427-6.854 2.412-10.466 1.66-1.688 3.256-3.467 5.048-5.05.818-.895 2.426.225 1.833 1.32-1.24 1.673-2.874 2.992-4.31 4.481 1.845 7.013-3.73 14.461-10.888 14.988H30.29c-4.363-.422-8.45-3.163-10.229-7.21-2.28-4.812-.91-10.981 3.164-14.395 2.847-2.558 6.854-3.44 10.57-2.782zM55.373 57.105c.567-.58 1.147-1.16 1.727-1.74l14.486 14.488c-.58.567-1.16 1.147-1.74 1.727L55.373 57.104z" fill="#fff"></path><path d="M31.186 60.216c.751-.118 1.727-.698 2.36 0 1.555 1.477 3.123 2.94 4.507 4.588-.118 2.386-.883 4.772-1.7 7.013-2.294.804-4.745 1.714-7.17 1.793a49.828 49.828 0 0 1-4.798-4.786c.066-2.386.988-4.785 1.805-7.026 1.569-.79 3.335-1.054 4.996-1.582zm-3.177 3.375c-.395 1.437-.777 2.887-1.173 4.337a377.139 377.139 0 0 0 3.27 3.243c1.462-.396 2.912-.791 4.375-1.173.37-1.437.738-2.887 1.094-4.337l-3.242-3.243c-1.437.395-2.887.778-4.323 1.173z" fill="#fff"></path>
		</symbol>
	
		<symbol id="adv_price" viewBox="0 0 99 98">
			<path fill-rule="evenodd" clip-rule="evenodd" d="M69.978 2.408c12.434 3.41 20.586 8.457 24.84 22.014 4.269 13.504 3.529 28.025 1.917 41.912-2.313 13.716-8.866 24.009-21.789 27.761-15.328 5.207-36.561 5.207-51.889 0C10.135 90.344 3.581 80.05 1.268 66.335c-1.612-13.888-2.352-28.41 1.93-41.913C7.439 10.865 15.592 5.817 28.038 2.408c12.791-3.21 29.15-3.21 41.94 0z" fill="#E1322D"></path><path fill-rule="evenodd" clip-rule="evenodd" d="M32.373 47.518c1.03-.33 1.374-.132 1.36.886-.409 1.308-1.4 2.523-2.735 2.933-.568-.092-.713-.687-.594-1.19.25-1.109 1.057-1.994 1.969-2.629zm40.617 5.154c-.687-2.947-4.783-10.03-9.434-11.998-1.176.872-1.863 1.678-3.383 2.26.74.422 1.546.726 2.273 1.175 1.493 1.44.542 4.215-3.105 2.471-4.44-2.523-9.368-2.325-14.178-2.444-2.154-.49-2.008-3.555.344-3.62-.965-.978-1.758-2.088-2.484-3.251l-4.097 1.15c-1.334-1.93-4.783-2.802-6.699-1.322 0 1.678.014 3.343 0 5.021C28 44.744 26.48 47.77 25.436 51.1c-.661-.013-1.322-.04-1.996.027-3.858.634-3.144 8.456-1.017 9.632.938.634 2.088.49 3.158.49.899 3.144 3.594 6.632 6.184 8.575.185.184.502.317.462.62.014 1.586 0 3.185 0 4.77-.053 1.81.45 4.097 2.617 4.348 1.096.25 4.875.185 5.827-.212 2.074-.938 1.744-2.722 1.85-4.466 4.135 1.03 9.5.952 13.636-.158l.489-.013c.013.74-.027 1.48.026 2.206.185 1.004.793 1.942 1.73 2.378 1.084.53 5.326.53 6.489.12 1.083-.503 2.008-1.573 1.942-2.815 0-2.392.013-4.783 0-7.162 7.73-8.575 4.228-8.919 6.673-13.57 4.017-.951 4.968-5.893 2.338-8.813.159 2.26-.541 4.545-2.854 5.616zM29.545 39.604v-2.392a2.67 2.67 0 0 1 1.044-2.246c.08-.066.158-.12.25-.185 1.6-1.097 3.621-1.335 5.498-.938a8.611 8.611 0 0 1 3.382 1.559l2.577-.727v.013a2.675 2.675 0 0 1 3 1.15c.343.542.686 1.044 1.03 1.506.33.45.7.886 1.097 1.295.462.476.74 1.097.766 1.797 0 .383-.066.74-.198 1.07 3.171.066 6.355.251 9.487 1.309.053-1.031.7-1.996 1.73-2.392.714-.278 1.217-.687 1.772-1.137.317-.25.647-.528.99-.779a2.7 2.7 0 0 1 2.63-.304c2.47 1.044 4.704 3.118 6.514 5.417a29.3 29.3 0 0 1 2.075 3.026c.092-.594.37-1.162.859-1.598a2.691 2.691 0 0 1 3.792.198 8.431 8.431 0 0 1 1.942 3.7 8.223 8.223 0 0 1-.08 4.162c-.382 1.387-1.122 2.656-2.22 3.647a7.705 7.705 0 0 1-2.007 1.294c-.265.727-.33 1.335-.41 1.956-.29 2.378-.595 4.783-5.55 10.452v6.025a5.222 5.222 0 0 1-.964 3.25c-.595.873-1.454 1.586-2.392 2.049a1.99 1.99 0 0 1-.383.171c-.885.317-2.696.463-4.36.436-1.639-.026-3.317-.25-4.19-.673a5.634 5.634 0 0 1-2.113-1.771 6.232 6.232 0 0 1-.978-2.048c-1.546.238-3.171.37-4.81.396a33.394 33.394 0 0 1-4.334-.237c-.277 1.453-1.044 2.761-3.224 3.739l-.053.026c-.753.317-2.18.502-3.58.555-1.282.04-2.683 0-3.542-.132h-.066c-1.89-.224-3.144-1.229-3.95-2.576-.78-1.295-1.044-2.881-1.031-4.255 0-.066-.013-.132-.013-.198 0-7.492.013 1.915.013-1.493v-2.234c-1.348-1.11-2.682-2.536-3.792-4.082a20.393 20.393 0 0 1-2.048-3.489c-.833-.053-1.705-.25-2.603-.819-1.507-.846-2.564-2.894-2.934-5.14a12.248 12.248 0 0 1-.105-3.264c.119-1.189.436-2.338.977-3.33.82-1.493 2.114-2.59 3.978-2.893.052 0 .119-.013.185-.013l.33-.027a17.483 17.483 0 0 1 1.89-3.607c1.017-1.48 2.338-2.867 4.122-4.15v-1.07z" fill="#fff"></path><path fill-rule="evenodd" clip-rule="evenodd" d="M53.223 36.432c3.29 1.018 7.466-.58 9.844-2.893 4.836-5.272 3.898-12.262-1.678-16.398-3.845-2.51-9.276-2.392-12.777.727-3.04 2.391-3.872 5.629-3.74 9.302.238 4.387 4.163 8.51 8.351 9.262zM43.036 21.118c.713-1.942 1.902-3.713 3.74-5.206l.052-.053c2.193-1.955 4.968-2.986 7.796-3.145 2.867-.158 5.8.582 8.232 2.18l.132.093c.436.317.872.687 1.295 1.07 2.63 2.405 4.175 5.431 4.519 8.602.356 3.172-.502 6.475-2.696 9.408-.277.37-.581.753-.938 1.15-.066.08-.145.172-.225.25-1.545 1.507-3.7 2.763-5.972 3.423-2.1.621-4.347.753-6.408.145-2.656-.528-5.193-2.074-7.07-4.148-1.876-2.101-3.157-4.784-3.303-7.585h.013l-.013-.04c-.08-2.167.146-4.215.846-6.144z" fill="#fff"></path>
		</symbol>
	
		<symbol id="adv_reusable" viewBox="0 0 98 98">
			<path fill-rule="evenodd" clip-rule="evenodd" d="M69.973 2.42c12.424 3.407 20.583 8.451 24.832 22.011 4.266 13.495 3.536 28.012 1.93 41.896-2.319 13.722-8.872 24.005-21.783 27.768-15.328 5.207-36.575 5.207-51.903 0C10.138 90.332 3.585 80.05 1.266 66.327-.34 52.443-1.086 37.926 3.196 24.43c4.233-13.56 12.408-18.604 24.832-22.01 12.798-3.228 29.147-3.228 41.945 0z" fill="#E1322D"></path><path fill-rule="evenodd" clip-rule="evenodd" d="M76.217 41.089c1.266 0 2.53-.081 3.796-.081.503-.033 1.103.016 1.427.454.34.47.146 1.087-.13 1.54l-6.504 11.922c-.21.406-.567.828-1.054.828-.47.048-.892-.293-1.12-.682-2.416-3.957-4.833-7.931-7.25-11.889a1.451 1.451 0 0 1-.145-1.184c.13-.405.584-.584.973-.649.73-.065 1.46 0 2.173-.08a18.903 18.903 0 0 0-1.979-4.12 22.189 22.189 0 0 0-2.368-3.115c-.778-.81-1.59-1.622-2.498-2.303-4.006-3.244-9.261-4.882-14.403-4.574-5.336.308-7.299 1.833-11.37 4.104.26-1.574 1.25-3.99 1.2-5.256.017-.438-.243-.876-.648-.989-.487-.178-.99.016-1.46.162-1.606.47-3.212.94-4.834 1.411l-.064-.324c2.822-2.32 6.066-4.136 9.553-5.255 6.65-2.174 14.095-1.8 20.486 1.054 3.227 1.411 6.147 3.455 8.645 5.92 2.108 2.157 3.65 4.185 5.093 6.829 1.087 1.995 1.897 4.103 2.481 6.277zm-44.701 24.07c-.325.081-.682.113-.925.373-.373.357-.34.957-.097 1.395 1.265 2.19 2.563 4.347 3.812 6.536-4.818-2.66-8.808-6.78-11.37-11.63A28.447 28.447 0 0 1 20 53.206c-1.07-6.31-.033-12.668 2.952-18.312-.86-.811-1.704-1.655-2.58-2.466-.372-.324-.745-.794-.68-1.33.064-.486.55-.794.989-.94l13.186-3.877c.439-.13.958-.178 1.347.114.357.292.422.81.34 1.249-1.038 4.444-2.157 8.888-3.244 13.332-.097.454-.26.957-.697 1.184-.422.211-.94.033-1.281-.26-.568-.486-1.087-1.037-1.639-1.524-1.313 3.114-1.8 6.57-1.492 9.943.422 4.947 2.693 9.683 6.229 13.17l.178.179c.13.113.26.243.39.357.08.08.178.146.275.243.308.324.681.568 1.006.876h-.373c-.536.048-1.087.016-1.622.032-.6 0-1.184.033-1.768-.016zm18.23-43.096c-3.21-.162-6.439.243-9.488 1.249v-.016l-.016.016c-.52.162-1.038.357-1.557.551.048.049.08.114.113.163.39.567.6 1.28.584 1.962.017.179 0 .357-.016.535 2.044-.957 4.185-1.573 7.575-1.768l.048-.016c2.888-.162 5.79.195 8.516 1.07a23.44 23.44 0 0 1 7.558 4.023l-.016.017c.535.389 1.006.81 1.46 1.232.405.39.81.811 1.216 1.217l.097.097c.47.519.941 1.07 1.412 1.703.438.584.86 1.168 1.216 1.768v.016c.487.763.908 1.492 1.25 2.206.372.779.713 1.59.989 2.417.048.162.08.308.097.47a2.416 2.416 0 0 1-2.125 2.693l-.13.016 2.336 3.828c.908 1.508 1.833 3.017 2.757 4.541l4.688-8.58h-.13c-.779.016-1.54.049-1.963.049v-.017c-1.054 0-2.043-.697-2.335-1.767-.26-1.006-.6-2.028-1.006-3.05a25.251 25.251 0 0 0-1.184-2.595l-.065-.114a27.59 27.59 0 0 0-2.125-3.308c-.778-1.055-1.622-2.011-2.578-3.001a26.3 26.3 0 0 0-3.747-3.082 25.823 25.823 0 0 0-4.136-2.303l-.017-.016a26.164 26.164 0 0 0-9.277-2.206zm-20.874 41.75c.34-.34.665-.552.973-.681a24.213 24.213 0 0 1-2.887-4.656 23.474 23.474 0 0 1-2.174-7.947 24.54 24.54 0 0 1 .163-5.677c.275-1.85.778-3.682 1.508-5.418v.017c.097-.244.243-.47.422-.682a2.433 2.433 0 0 1 3.422-.21l.098.097c.275-1.136.486-2.011.713-2.904.535-2.19 1.07-4.395 1.606-6.601l-9.391 2.757.162.146c.34.325.681.665 1.087 1.038.794.714 1.054 1.93.519 2.92a26.47 26.47 0 0 0-2.758 8.175 26.57 26.57 0 0 0 .049 8.629 24.968 24.968 0 0 0 1.022 4.038 24.214 24.214 0 0 0 1.67 3.828l-.016.017h.016a24.888 24.888 0 0 0 2.985 4.46c.146-.487.422-.94.81-1.346z" fill="#fff"></path><path fill-rule="evenodd" clip-rule="evenodd" d="M76.737 53.059c-.098 1.67-1.022 4.444-1.622 5.969-3.601 9.65-13.268 16.852-23.503 17.955-2.514.276-5.06.227-7.558-.146-.163-.048-.227.097-.292.211-.552.99-1.12 1.963-1.687 2.952-.211.39-.6.746-1.087.714-.503 0-.876-.422-1.103-.828-2.157-3.681-4.33-7.38-6.488-11.061-.21-.39-.47-.746-.632-1.168-.098-.357-.098-.795.178-1.087.292-.308.73-.405 1.135-.405l9.035-.05c1.54-.048 3.098-.015 4.655-.031.438-.017.957.08 1.233.47.243.34.21.81.032 1.2-.308.633-.73 1.217-1.022 1.865 5.499.163 11.013-2.01 14.987-5.822a21.296 21.296 0 0 0 6.326-11.825 2.43 2.43 0 0 1 .097-.47c.308.422.536.876.811 1.314.811 1.313 1.606 2.66 2.433 3.973.244.406.73.763 1.217.65.924-.228 2.352-3.456 2.855-4.38zm-6.132 5.012l-.373-.616a23.84 23.84 0 0 1-.973 2.06 24.018 24.018 0 0 1-4.606 6.033 23.723 23.723 0 0 1-7.72 4.915c-2.823 1.087-5.84 1.654-8.873 1.59-.34 0-.681-.066-1.022-.212-1.216-.535-1.784-1.962-1.249-3.179l.081-.162c-.892 0-1.768 0-2.692.033-2.368 0-4.753.032-7.12.032L41.003 77l.649-1.135.065-.13v.017c.519-.844 1.087-1.785 2.87-1.282 1.12.162 2.223.243 3.293.276a25.275 25.275 0 0 0 3.471-.179c4.704-.502 9.294-2.416 13.106-5.336 3.358-2.563 6.115-5.888 7.818-9.667-.065-.032-.114-.065-.178-.081a4.015 4.015 0 0 1-1.314-1.184 1.222 1.222 0 0 1-.179-.227z" fill="#fff"></path>
		</symbol>
	
		<symbol id="adv_strength" viewBox="0 0 98 98">
			<path fill-rule="evenodd" clip-rule="evenodd" d="M69.964 2.401c12.433 3.414 20.607 8.452 24.849 22.024 4.274 13.49 3.526 28.02 1.917 41.901-2.307 13.718-8.857 24.007-21.776 27.761-15.326 5.217-36.566 5.217-51.907 0-12.904-3.755-19.47-14.043-21.777-27.76-1.61-13.881-2.357-28.412 1.917-41.902C7.43 10.853 15.603 5.815 28.036 2.4 40.826-.8 57.174-.8 69.964 2.401z" fill="#E1322D"></path><path d="M36.275 29.69c-1.95.537-2.844-.145-2.73.245 0 .016.325.325.796.78 2 1.918 5.883 5.624 7.086 14.45l1.17 8.5c.195 1.446-.081 2.031.049 2.015.211-.032.91-.731 1.852-1.69 3.69-3.755 10.45-10.581 23.337-5.884 1.317.488 2.568.894 3.657 1.252 4.388 1.446 6.224 2.064 7.54 5.607 1.057 2.844 2.422 6.631 2.877 10.11.488 3.835-.114 7.281-3.283 8.923l-1.885.991c-5.265 2.73-7.898 4.096-10.79 4.828-2.877.747-5.868.796-11.832.91l-2.08.032c-4.144.082-14.626-2.162-22.817-5.363-6.11-2.39-11.05-5.413-11.587-8.647l-1.463-8.956c-.682-4.063.276-10.695 2.08-16.92 1.756-6.078 4.356-11.865 7.07-14.628 6.955-7.054 8.353-7.233 14.984-8.094 1.56-.195 3.428-.439 5.866-.845 1.398-.244 3.982.179 6.11 1.024 1.837.748 3.397 1.869 3.836 3.283.78 2.633 1.284 4.405 1.219 6.144-.081 1.82-.78 3.413-2.405 5.526-.96 1.235-2.617 1.674-4.404 1.642-2.032-.05-4.323-.732-5.656-1.496l-7.118-4.128-1.479.39zm-5.119.895c-.439-1.61.715-2.26 4.47-3.283l1.966-.537.016.017c.292-.098.634-.05.942.113l7.557 4.389c1.04.601 2.844 1.138 4.47 1.17 1.072.016 1.998-.163 2.388-.666 1.284-1.69 1.837-2.877 1.902-4.129.049-1.332-.406-2.942-1.122-5.33-.178-.602-1.186-1.22-2.389-1.707-1.739-.7-3.77-1.057-4.778-.878-2.356.39-4.322.65-5.948.861-5.931.764-7.183.927-13.553 7.38-2.422 2.454-4.794 7.834-6.452 13.57-1.723 5.917-2.633 12.126-2.015 15.848l1.479 8.94c.357 2.21 4.664 4.648 10.027 6.745 7.93 3.104 17.974 5.282 21.89 5.2l2.08-.032c5.754-.114 8.614-.162 11.263-.829 2.616-.666 5.152-1.999 10.238-4.632l1.918-.991c1.983-1.024 2.324-3.544 1.95-6.42-.406-3.203-1.722-6.827-2.73-9.558-.91-2.421-2.405-2.925-5.997-4.112-1.04-.341-2.226-.731-3.738-1.284-11.392-4.16-17.437 1.95-20.736 5.283-1.284 1.3-2.227 2.259-3.267 2.405-1.528.212-2.405-.878-2.844-4.112l-1.154-8.517c-1.089-7.964-4.566-11.28-6.354-13.002-.764-.732-1.3-1.236-1.479-1.902z" fill="#fff"></path>
		</symbol>
	
		<symbol id="logo" viewBox="0 0 220 55">
			<g clip-path="url(#a)"><path fill-rule="evenodd" clip-rule="evenodd" d="M35.733 9.014L17.875 0v18.2l17.858-9.186z" fill="#319F01"></path><path fill-rule="evenodd" clip-rule="evenodd" d="M.018 9.014L17.875 0v18.2L.018 9.014zM35.717 45.405L17.86 36.391v18.2l17.857-9.186z" fill="#206C00"></path><path fill-rule="evenodd" clip-rule="evenodd" d="M.002 45.405l17.858-9.014v18.2L.002 45.405z" fill="#319F01"></path><path fill-rule="evenodd" clip-rule="evenodd" d="M17.823 36.373l17.894-9.167v18.2l-17.894-9.033z" fill="#E1322D"></path><path fill-rule="evenodd" clip-rule="evenodd" d="M35.717 27.206L17.86 18.192v18.2l17.857-9.186z" fill="#900838"></path><path fill-rule="evenodd" clip-rule="evenodd" d="M.018 27.214L17.875 18.2v18.2L.018 27.213z" fill="#BE004A"></path><path fill-rule="evenodd" clip-rule="evenodd" d="M17.875 18.2L.018 9.014v18.37L17.875 18.2z" fill="#E1322D"></path><path d="M53.188 24.018c0 1.421.505 2.65 1.515 3.677 1.01 1.029 2.245 1.54 3.702 1.54 1.504 0 2.779-.488 3.824-1.463 1.046-.97 1.569-2.197 1.569-3.678 0-.681-.165-1.351-.493-2.02A4.99 4.99 0 0 0 62 20.398a6.838 6.838 0 0 0-1.903-1.093c-.423-.164-1.175-.382-2.256-.664-1.081-.282-1.833-.505-2.256-.67-.87-.328-1.598-.751-2.186-1.268-1.457-1.245-2.185-2.861-2.185-4.859 0-2.062.711-3.748 2.133-5.046 1.421-1.305 3.178-1.957 5.27-1.957 1.973 0 3.66.676 5.058 2.027 1.398 1.352 2.097 3.026 2.097 5.024h-2.714c0-1.317-.453-2.403-1.357-3.261-.905-.858-2.039-1.287-3.402-1.287-1.245 0-2.303.447-3.172 1.34-.87.887-1.305 1.956-1.305 3.202 0 1.386.541 2.45 1.622 3.201.658.447 1.803.9 3.437 1.357 1.633.459 2.544.723 2.732.794.892.323 1.68.805 2.361 1.439 1.622 1.41 2.433 3.225 2.433 5.458 0 2.132-.782 3.936-2.345 5.405-1.563 1.463-3.425 2.197-5.587 2.197-2.28 0-4.195-.723-5.746-2.174-1.55-1.451-2.326-3.302-2.326-5.546h2.784z" fill="#000"></path><path d="M54.862 27.54l-.316.31-.097-.1-.094-.102-.09-.103-.088-.104-.085-.106-.081-.107-.08-.108-.075-.11-.072-.11-.07-.112-.066-.114-.064-.115-.06-.116-.057-.116-.054-.119-.052-.12-.047-.12-.045-.122-.042-.123-.039-.125-.036-.125-.032-.127-.03-.128-.025-.129-.024-.13-.02-.131-.017-.132-.013-.134-.01-.134-.009-.136-.004-.136-.002-.137h.443l.002.127.004.127.007.125.01.124.013.123.016.122.018.12.022.12.023.118.027.117.03.116.033.114.035.114.038.112.041.112.044.11.046.109.05.108.052.107.055.106.058.105.061.104.064.103.067.102.07.1.071.1.076.099.078.097.08.097.085.095.087.095.09.094zm3.543 1.473v.443l-.141-.001-.14-.005-.138-.008-.137-.01-.136-.015-.134-.017-.134-.02-.132-.024-.131-.027-.13-.03-.128-.032-.127-.036-.126-.04-.124-.042-.123-.045-.122-.049-.12-.052-.12-.055-.117-.058-.116-.061-.115-.065-.113-.067-.112-.071-.111-.074-.11-.077-.107-.08-.106-.083-.105-.087-.103-.089-.102-.092-.1-.095-.1-.099.317-.31.091.09.093.09.094.084.096.083.096.079.097.076.1.073.1.071.1.068.102.064.104.062.105.059.106.056.107.053.108.05.11.047.11.045.113.041.114.04.114.035.116.033.118.03.119.027.12.024.121.022.123.02.124.015.126.013.127.01.128.007.13.004.13.002zm3.674-1.404l.301.325-.102.093-.104.09-.105.088-.107.085-.108.082-.11.079-.111.076-.113.073-.114.07-.115.066-.117.065-.118.06-.12.059-.121.055-.123.052-.124.05-.125.045-.127.043-.128.04-.129.038-.13.034-.133.031-.133.029-.134.025-.136.022-.138.02-.138.016-.14.013-.14.01-.143.008-.144.004-.144.002v-.444l.135-.001.134-.004.134-.007.131-.01.13-.012.13-.015.126-.018.126-.02.125-.024.123-.026.122-.029.12-.032.12-.034.117-.037.116-.04.115-.042.114-.045.113-.048.111-.05.11-.054.109-.056.107-.059.106-.062.105-.064.104-.067.102-.07.1-.072.1-.076.1-.078.097-.082.096-.084.095-.086zm1.497-3.515h.443l-.001.143-.005.142-.008.14-.011.139-.015.137-.017.136-.02.135-.025.133-.027.132-.03.13-.034.129-.037.127-.04.126-.043.124-.047.123-.05.12-.053.12-.056.119-.059.116-.063.115-.066.114-.069.112-.072.11-.075.108-.08.107-.08.105-.086.104-.088.102-.091.1-.094.099-.097.097-.1.095-.302-.325.093-.088.09-.09.086-.09.084-.092.08-.094.077-.094.075-.096.072-.098.068-.1.066-.099.063-.102.06-.103.056-.104.054-.106.051-.107.048-.109.045-.11.043-.112.04-.113.036-.114.033-.116.03-.118.029-.12.025-.12.022-.122.019-.124.016-.125.013-.127.01-.128.008-.13.005-.132.001-.133v.002zm-.47-1.923l.397-.195.032.065.03.065.03.065.028.066.028.065.026.066.026.065.025.066.023.065.023.066.022.066.02.066.02.066.019.066.018.066.017.066.015.067.015.066.013.066.013.067.012.066.01.067.01.066.009.067.008.067.006.067.006.067.004.067.004.067.003.067.001.067v.067h-.442v-.06l-.002-.061-.002-.06-.003-.06-.004-.061-.005-.06-.006-.06-.007-.06-.008-.06-.009-.06-.01-.06-.01-.06-.011-.06-.013-.06-.013-.06-.014-.06-.015-.06-.016-.06-.017-.06-.018-.06-.019-.06-.02-.06-.02-.06-.022-.06-.022-.06-.024-.06-.024-.06-.025-.06-.027-.06-.027-.06-.028-.06-.03-.061zm-1.247-1.601l.282-.342.053.044.052.045.051.046.051.046.05.046.05.048.049.048.048.05.047.05.047.05.046.05.045.052.045.052.045.053.044.054.042.054.043.055.041.056.041.056.04.058.04.057.04.058.038.06.037.059.037.06.036.061.036.062.035.062.035.063.033.064.033.064.032.065-.397.195-.03-.06-.03-.06-.032-.058-.031-.058-.032-.057-.033-.057-.033-.056-.034-.055-.035-.055-.035-.054-.036-.054-.036-.053-.037-.052-.038-.051-.038-.052-.038-.05-.04-.05-.04-.049-.04-.048-.04-.047-.042-.048-.042-.046-.043-.046-.043-.045-.044-.045-.045-.044-.045-.043-.045-.043-.047-.043-.046-.04-.048-.042-.048-.04h-.001zm-1.843-1.057l.161-.413.07.027.069.028.069.028.068.03.067.029.067.03.067.03.066.031.066.032.064.032.065.032.064.033.063.034.063.033.062.035.061.035.061.036.06.036.06.036.06.037.06.038.058.038.058.039.057.039.057.04.056.04.056.04.055.041.054.042.054.042.054.043.052.043-.282.341-.049-.04-.05-.04-.05-.039-.05-.038-.052-.039-.051-.038-.052-.037-.054-.037-.053-.036-.054-.036-.055-.036-.054-.035-.056-.035-.056-.034-.057-.034-.057-.033-.058-.033-.059-.032-.059-.032-.06-.032-.06-.03-.06-.03-.061-.031-.062-.03-.063-.03-.062-.028-.063-.028-.064-.028-.065-.027-.065-.027-.066-.026-.066-.026h.001zm-2.231-.656l.111-.429.1.026.1.027.097.025.095.026.092.024.091.025.09.024.087.023.085.024.084.023.081.023.08.022.078.022.076.022.073.021.073.021.07.021.068.02.066.02.065.02.063.02.06.019.06.019.056.018.056.018.053.018.052.017.05.017.047.017.046.017.045.017.042.017-.16.413-.04-.015-.04-.015-.043-.016-.045-.016-.047-.017-.049-.016-.051-.017-.053-.018-.055-.017-.058-.018-.059-.019-.06-.018-.063-.02-.065-.02-.067-.02-.07-.02-.07-.02-.073-.021-.075-.021-.076-.022-.079-.022-.08-.023-.083-.023-.085-.023-.086-.024-.089-.024-.09-.024-.093-.025-.094-.025-.096-.025-.098-.026-.1-.026v-.001zm-2.279-.677l.157-.414h.002l.039.015.04.016.044.015.045.016.047.017.049.017.051.017.053.017.055.019.057.018.06.018.06.02.063.02.065.02.067.02.069.02.071.021.073.021.075.022.076.022.079.022.08.023.083.023.084.023.087.024.088.024.09.025.093.024.094.026.097.025.098.026.1.026-.112.429-.1-.026-.1-.027-.097-.025-.094-.026-.093-.025-.091-.025-.09-.024-.087-.024-.085-.024-.084-.023-.081-.023-.08-.023-.078-.022-.076-.022-.074-.021-.072-.022-.07-.02-.068-.022-.067-.02-.064-.02-.063-.02-.06-.019-.06-.019-.056-.019-.056-.018-.053-.018-.052-.018-.05-.017-.047-.017-.046-.017-.044-.017-.043-.016h.002v.002zm-2.25-1.308l.287-.336.003.002.053.046.055.046.054.045.056.045.057.044.058.044.058.043.059.043.06.043.06.041.062.042.062.04.063.04.064.04.065.04.066.038.067.038.067.038.068.037.07.037.07.036.07.036.071.035.073.034.073.034.074.033.075.033.076.033.077.032.077.031.079.031.079.03-.157.415-.083-.032-.083-.033-.08-.032-.082-.034-.08-.034-.078-.035-.079-.036-.077-.036-.076-.036-.076-.037-.075-.038-.074-.038-.074-.039-.072-.04-.072-.04-.071-.04-.07-.042-.07-.041-.068-.043-.068-.043-.067-.043-.066-.044-.065-.045-.064-.046-.064-.045-.062-.047-.062-.047-.061-.047-.06-.049-.06-.049-.058-.05-.058-.05.002.003h.001zm-2.264-5.027h.443l.002.181.007.18.01.176.014.174.019.171.023.17.027.167.03.165.036.162.039.16.043.158.047.156.052.153.055.151.06.15.064.147.067.144.072.143.076.14.08.139.084.136.089.135.092.132.097.13.1.129.105.126.11.124.113.122.118.12.122.119.126.116.13.114-.288.337-.139-.122-.134-.124-.13-.126-.126-.128-.12-.131-.118-.133-.113-.136-.108-.138-.104-.14-.1-.143-.095-.145-.09-.147-.087-.15-.082-.152-.077-.154-.073-.156-.069-.159-.064-.16-.06-.164-.055-.166-.051-.167-.047-.17-.042-.172-.037-.174-.033-.176-.03-.179-.024-.18-.02-.183-.015-.185-.011-.187-.007-.189-.002-.191zm2.205-5.21l.299.327-.128.12-.122.12-.12.124-.114.125-.11.128-.107.13-.102.131-.099.134-.094.136-.09.138-.087.14-.082.143-.078.144-.075.147-.07.148-.066.152-.063.153-.058.156-.054.157-.05.16-.047.163-.042.164-.039.167-.034.169-.03.17-.026.175-.022.175-.019.179-.014.18-.01.183-.006.185-.003.187h-.443l.003-.197.006-.195.01-.192.016-.191.019-.189.023-.187.029-.184.032-.182.036-.18.041-.178.045-.176.05-.173.053-.172.059-.169.062-.167.067-.164.071-.162.076-.16.08-.158.083-.155.089-.153.093-.15.097-.15.101-.146.106-.143.11-.14.114-.14.118-.136.123-.134.126-.131.131-.13.136-.126zm5.419-2.014v.443l-.19.002-.19.005-.186.01-.185.013-.182.016-.181.02-.178.025-.177.028-.174.032-.173.035-.17.039-.169.043-.166.046-.165.05-.162.054-.16.058-.16.061-.156.065-.155.068-.153.073-.15.076-.15.08-.147.083-.145.087-.144.09-.141.095-.14.098-.138.102-.136.106-.134.11-.133.113-.13.117-.3-.327.138-.124.14-.12.143-.116.144-.112.146-.108.149-.105.15-.1.153-.097.155-.092.157-.089.158-.085.16-.08.164-.078.165-.073.166-.069.17-.064.17-.061.173-.058.175-.053.176-.049.179-.045.18-.041.183-.038.184-.033.186-.03.189-.025.19-.021.192-.018.193-.013.196-.01.197-.006.2-.002-.001-.001zm5.212 2.09l-.308.318-.128-.122-.13-.117-.131-.113-.133-.11-.135-.106-.136-.101-.137-.098-.14-.094-.14-.09-.143-.087-.144-.082-.146-.078-.147-.075-.149-.071-.15-.067-.152-.063-.154-.06-.155-.055-.157-.052-.159-.048-.16-.044-.162-.04-.164-.037-.165-.032-.167-.029-.17-.025-.17-.021-.172-.017-.175-.014-.176-.01-.177-.005-.18-.002v-.443l.19.002.187.006.186.01.184.015.182.018.181.023.18.026.177.031.176.035.175.038.172.043.171.047.17.051.167.056.166.059.164.063.162.068.161.071.16.076.156.08.156.083.153.088.152.092.15.096.148.1.147.104.145.108.142.112.141.116.14.12.137.125.135.128zm1.944 5.403v-.443l-.222.222-.002-.182-.006-.18-.01-.177-.014-.175-.018-.174-.022-.172-.025-.17-.03-.167-.034-.166-.038-.163-.041-.162-.046-.16-.05-.158-.053-.156-.057-.155-.061-.152-.066-.15-.069-.15-.073-.146-.077-.146-.081-.143-.085-.141-.09-.14-.092-.138-.097-.136-.101-.135-.105-.133-.11-.13-.113-.13-.117-.127-.121-.126-.126-.124.308-.318.133.13.129.134.124.135.12.138.117.139.112.142.108.143.103.146.1.147.095.15.09.151.087.153.083.156.078.158.074.159.07.161.066.164.061.165.057.167.053.17.049.17.044.173.04.175.036.177.032.178.027.18.023.183.02.184.014.186.01.187.007.19.002.19-.221.223zm.221-.222v.222h-.221l.221-.222zm-2.935-.221h2.714v.443h-2.715l-.221-.222.221-.221zm0 .443h-.222v-.222l.221.222zm-1.51-3.321l.304-.322.087.085.085.086.082.088.08.09.076.09.074.092.07.094.07.095.065.097.063.098.06.1.057.1.054.103.052.104.05.105.045.107.043.108.04.11.038.11.035.112.032.114.03.115.026.116.024.117.02.119.019.12.015.121.012.123.01.123.007.126.004.126.001.127h-.442l-.002-.117-.004-.117-.006-.115-.01-.114-.01-.112-.015-.11-.016-.11-.019-.108-.021-.106-.024-.105-.027-.104-.029-.102-.031-.101-.034-.1-.036-.098-.04-.098-.04-.095-.044-.094-.047-.094-.049-.092-.051-.09-.054-.09-.056-.088-.059-.087-.062-.086-.064-.084-.066-.084-.07-.082-.072-.081-.074-.08-.077-.078-.08-.078zm-3.25-1.226v-.443l.132.001.13.004.13.007.127.009.127.011.125.015.124.017.123.02.12.021.12.026.12.027.117.03.116.033.115.036.114.038.112.04.11.044.11.047.108.048.106.051.106.055.104.056.102.06.101.062.1.064.098.067.096.07.096.072.094.075.092.078.09.08.09.083-.305.321-.082-.075-.083-.074-.084-.07-.085-.069-.087-.066-.087-.063-.09-.061-.09-.059-.091-.056-.093-.054-.094-.05-.095-.05L60.391 8l-.098-.045-.1-.041-.1-.04-.101-.037-.104-.034-.104-.032-.106-.03-.107-.028-.109-.025-.11-.023-.11-.02-.114-.018-.114-.016-.116-.013-.116-.01-.119-.01-.12-.005-.12-.004h-.124v-.001zM55.284 8.84l-.316-.31.085-.086.087-.083.088-.08.09-.079.09-.075.092-.073.093-.07.095-.067.095-.064.097-.062.098-.06.1-.056.1-.054.101-.051.103-.048.104-.046.105-.043.106-.04.108-.037.108-.034.11-.032.11-.029.112-.026.113-.023.114-.02.115-.019.116-.015.117-.012.118-.01.12-.006.12-.005.12-.001v.443l-.11.001-.11.004-.11.006-.107.01-.107.01-.105.014-.104.016-.103.019-.102.02-.1.025-.1.026-.099.028-.097.031-.097.033-.095.036-.095.038-.093.041-.092.043-.091.046-.09.048-.09.051-.088.054-.087.056-.086.058-.086.06-.084.064-.083.066-.082.069-.082.07-.08.075-.08.076-.078.079zm-1.24 3.047H53.6l.002-.121.004-.12.007-.12.009-.118.012-.117.015-.117.017-.114.02-.115.023-.113.025-.113.028-.11.03-.111.035-.11.036-.107.038-.107.042-.106.044-.105.047-.103.05-.103.052-.101.055-.1.057-.1.06-.098.063-.097.066-.095.068-.095.07-.093.074-.092.076-.09.079-.09.08-.09.084-.086.317.31-.077.08-.074.081-.072.082-.07.083-.066.084-.064.085-.062.086-.06.086-.056.088-.055.089-.052.09-.05.09-.047.091-.044.092-.043.093-.04.095-.037.095-.035.097-.033.097-.03.099-.028.1-.025.1-.024.101-.02.103-.018.103-.016.105-.014.106-.01.107-.009.108-.006.109-.004.11-.001.112zm1.523 3.018l-.248.367-.002-.002-.105-.075-.102-.077-.098-.079-.095-.08-.092-.084-.089-.085-.085-.087-.083-.09-.078-.09-.076-.094-.072-.096-.07-.097-.065-.1-.063-.1-.059-.104-.055-.106-.053-.107-.049-.11-.045-.111-.042-.113-.039-.115-.035-.117-.032-.119-.028-.12-.026-.123-.021-.124-.018-.126-.015-.127-.012-.13-.008-.13-.005-.133-.002-.135h.443l.001.124.005.121.008.12.01.117.014.116.016.113.02.112.022.11.026.106.028.106.031.104.035.101.037.1.04.098.043.097.046.094.049.093.051.09.055.09.058.087.061.086.064.084.067.082.07.08.072.08.076.078.08.076.082.074.085.073.088.071.092.07.095.067-.002-.001zm3.373 1.327l-.12.427-.153-.043-.15-.043-.147-.044-.144-.043-.141-.043-.139-.043-.135-.043-.133-.043-.13-.043-.128-.044-.124-.043-.122-.043-.12-.043-.115-.043-.114-.043-.11-.043-.108-.044-.105-.043-.102-.043-.1-.043-.096-.043-.095-.044-.09-.043-.09-.043-.085-.044-.083-.043-.08-.044-.078-.043-.075-.044-.072-.044-.07-.044-.067-.045.249-.366.06.04.062.039.065.04.068.04.072.04.074.04.077.041.08.041.085.04.086.042.09.041.092.041.095.042.098.041.101.042.104.041.107.042.11.042.113.042.116.042.118.042.122.042.124.042.128.042.13.043.134.042.136.043.14.042.141.042.145.043.148.043.15.042zm2.747.798l-.15.417h-.003l-.016-.007-.021-.007-.027-.009-.031-.01-.035-.011-.04-.013-.045-.014-.049-.015-.053-.015-.057-.018-.062-.018-.066-.02-.07-.02-.074-.023-.08-.022-.082-.025-.088-.025-.091-.026-.096-.028-.1-.029-.104-.03-.108-.03-.113-.033-.117-.033-.121-.034-.125-.036-.13-.037-.134-.038-.138-.039-.143-.04-.147-.041-.15-.043.12-.426.15.042.148.042.142.04.139.039.134.038.13.036.125.036.122.034.117.034.113.032.109.031.105.03.1.029.096.027.092.027.088.025.084.025.079.023.075.022.07.021.068.02.062.019.058.018.054.016.05.015.046.014.042.013.038.012.034.011.03.01.027.01.023.008h-.003zm2.432 1.48l-.29.335-.006-.005-.063-.057-.062-.056-.064-.056-.064-.054-.064-.054-.065-.053-.066-.052-.066-.05-.067-.05-.068-.05-.068-.049-.068-.047-.07-.047-.07-.046-.07-.045-.071-.044-.072-.043-.072-.042-.073-.041-.074-.041-.074-.04-.075-.038-.075-.038-.076-.037-.076-.036-.078-.035-.077-.035-.079-.033-.08-.032-.079-.032-.08-.03-.081-.03.15-.417.087.032.085.032.085.034.084.035.083.035.083.037.082.037.082.039.08.039.081.04.08.041.079.043.078.043.078.044.077.045.076.046.076.048.076.047.074.05.074.05.073.05.074.052.072.052.07.054.071.054.07.056.07.056.068.057.069.058.067.06.067.06.066.06-.005-.004v-.001zm2.508 5.626h-.443l-.002-.203-.007-.2-.011-.198-.017-.196-.02-.193-.026-.19-.03-.187-.034-.186-.039-.183-.043-.18-.049-.178-.053-.175-.057-.173-.062-.171-.067-.168-.07-.166-.077-.163-.08-.162-.085-.159-.09-.156-.093-.154-.1-.152-.102-.15-.108-.148-.113-.145-.117-.143-.122-.14-.127-.14-.131-.136-.136-.134-.141-.131-.146-.13.29-.334.155.136.149.14.144.142.14.145.134.147.13.15.125.152.12.155.115.157.11.16.106.163.1.165.096.167.091.17.086.173.081.175.076.177.071.18.067.182.06.186.057.186.052.19.046.192.042.195.037.197.032.199.026.201.022.204.017.206.012.209.008.21.002.214v-.001zm-2.414 5.566l-.303-.323.14-.135.136-.137.132-.139.127-.14.122-.143.118-.144.113-.146.108-.148.105-.15.1-.151.095-.153.09-.155.087-.158.082-.158.078-.16.073-.163.068-.165.064-.166.06-.168.055-.17.051-.172.047-.174.042-.176.038-.178.033-.18.029-.182.024-.184.02-.186.016-.187.01-.19.007-.192.002-.194h.443l-.002.204-.007.203-.012.2-.016.198-.022.197-.025.195-.031.192-.035.191-.04.19-.046.187-.05.185-.053.183-.06.182-.063.18-.069.177-.073.175-.078.174-.083.171-.087.17-.092.167-.097.165-.102.163-.106.162-.11.159-.116.157-.12.155-.125.152-.13.151-.133.149-.139.146-.143.144-.148.143zm-5.739 2.257v-.443l.197-.002.196-.007.193-.01.192-.015.19-.019.187-.023.186-.027.185-.032.182-.035.18-.04.18-.044.177-.048.176-.052.173-.056.172-.06.17-.066.17-.068.166-.073.165-.077.164-.082.162-.085.16-.09.159-.093.156-.099.156-.102.153-.106.152-.111.15-.115.149-.118.147-.124.146-.128.144-.131.302.323-.15.139-.153.133-.155.13-.156.125-.159.121-.16.117-.163.112-.164.108-.166.104-.167.099-.17.095-.172.09-.173.086-.175.082-.177.078-.179.073-.18.068-.183.065-.184.06-.186.055-.187.05-.19.047-.191.042-.193.037-.195.033-.196.029-.198.024-.2.02-.202.016-.203.01-.205.007-.206.003h.001zm-5.897-2.233l.303-.324.143.13.144.127.147.122.149.117.15.114.153.11.155.105.157.1.159.098.161.093.163.088.165.085.167.08.17.076.17.073.174.067.176.064.177.06.18.056.181.051.184.047.187.044.188.04.19.034.194.031.194.027.197.023.2.018.201.015.204.01.206.007.209.002v.443l-.217-.002-.215-.007-.213-.01-.211-.016-.209-.02-.207-.023-.204-.028-.203-.033-.2-.037-.2-.041-.195-.046-.195-.05-.192-.055-.19-.058-.188-.063-.185-.068-.184-.072-.181-.076-.18-.08-.177-.086-.175-.09-.172-.094-.17-.098-.169-.103-.166-.106-.163-.112-.162-.116-.16-.12-.156-.124-.155-.129-.153-.133-.15-.137zm-2.175-5.93v.443l.222-.221.002.204.007.202.011.2.016.197.02.195.023.192.03.19.032.188.038.185.042.183.046.18.05.179.056.175.06.174.063.171.068.17.073.166.077.164.081.162.086.16.09.158.095.155.099.153.103.151.108.15.112.146.117.144.12.143.127.14.13.138.134.135.14.134-.303.323-.147-.14-.142-.144-.138-.146-.134-.148-.128-.151-.124-.154-.12-.156-.115-.158-.11-.16-.105-.164-.101-.166-.096-.168-.092-.17-.086-.173-.083-.176-.077-.177-.073-.18-.068-.183-.063-.185-.059-.187-.053-.19-.05-.19-.044-.195-.04-.196-.035-.199-.03-.2-.026-.203-.02-.205-.017-.207-.011-.21-.007-.212-.003-.214.222-.221zm-.221.222v-.222h.221l-.221.222zm3.006.221h-2.785v-.443h2.785l.222.222-.222.221zm0-.443h.222v.222l-.222-.222zM73.421 7.627H67.43V5.265H81.95v2.362H76.03v23.688H73.42V7.627z" fill="#000"></path><path d="M67.429 7.405h5.992v.443H67.43l-.222-.221.222-.222zm0 .443h-.222v-.221l.222.221zm.221-2.583v2.362h-.443V5.265l.222-.222.222.222zm-.443 0v-.222h.222l-.222.222zm14.745.222H67.429v-.444h14.523l.222.222-.222.222zm0-.444h.222v.222l-.222-.222zm-.222 2.584V5.265h.443v2.362l-.222.221-.221-.221zm.443 0v.221h-.222l.222-.221zm-6.143-.222h5.922v.443H76.03l-.222-.221.222-.222zm-.222.222v-.222h.222l-.222.222zm0 23.687V7.627h.443v23.688l-.222.221-.221-.222zm.443 0v.222h-.222l.222-.222zm-2.83-.221h2.609v.443H73.42l-.222-.222.222-.221zm0 .443H73.2v-.222l.222.222zm.222-23.91v23.688H73.2V7.627l.221-.222.222.222zm-.222-.221h.222v.222l-.222-.222zM90.976 5.265h2.89l11.174 26.05-2.838.005-3.748-8.748H86.305l-3.766 8.736-2.808.006 11.245-26.05zm6.427 14.945L92.42 8.237 87.327 20.21h10.076z" fill="#000"></path><path d="M93.866 5.486h-2.89v-.443h2.89l.204.134-.204.31zm0-.443h.146l.058.134-.204-.134zM104.837 31.4L93.662 5.352l.408-.175 11.174 26.05-.203.308-.205-.134h.001zm.407-.174l.132.308h-.335l.203-.308zm-3.042-.129l2.837-.005.002.442-2.838.006-.204-.134.203-.309zm.001.443h-.147l-.057-.134.204.134zm-3.545-9.056l3.748 8.748-.407.174-3.748-8.748.203-.309.204.135zm-.204-.135h.146l.058.135-.204-.135zm-12.149 0h12.15v.444h-12.15l-.203-.31.203-.134zm-.203.134l.057-.134h.146l-.203.134zm-3.766 8.736l3.766-8.736.407.176-3.766 8.736-.203.134-.204-.31zm.407.176l-.058.133h-.145l.203-.133zm-3.013-.303l2.809-.006v.442l-2.808.006-.203-.309.202-.133zm.001.442l-.337.001.133-.31.204.31zM91.18 5.352l-11.245 26.05-.406-.176 11.244-26.05.204-.133.203.309zm-.407-.176l.058-.133h.146l-.203.133zm1.853 2.976l4.982 11.973-.409.17-4.981-11.973v-.171l.409.001zm-.408-.001l.206-.485.203.486-.41-.001zm-5.094 11.973L92.217 8.15l.408.173-5.094 11.973-.204.135-.204-.308zm.204.308h-.335l.132-.308.203.308zm10.076 0H87.327v-.443h10.076l.204.136-.204.307zm.204-.307l.128.307h-.332l.204-.307zM108.107 5.265l3.513.005 14.605 21.644V5.264h2.609v26.05h-2.609l-15.51-22.912v22.913h-2.608V5.264z" fill="#000"></path><path d="M111.62 5.492l-3.513-.006v-.443l3.514.006.183.098-.184.345zm.001-.443h.117l.066.098-.183-.097zm14.421 21.99L111.437 5.394l.367-.248 14.605 21.643.038.124-.405.124zm.405-.125v.725l-.405-.6.405-.125zm0-21.65v21.65h-.443V5.264l.222-.22.221.22zm-.443 0v-.22h.222l-.222.22zm2.83.223h-2.609v-.444h2.609l.222.222-.222.222zm0-.444h.222v.222l-.222-.222zm-.222 26.271V5.264h.443v26.05l-.221.222-.222-.222zm.443 0v.222h-.221l.221-.222zm-2.83-.221h2.609v.443h-2.609l-.183-.097.183-.346zm0 .443h-.117l-.066-.097.183.097zM110.899 8.278l15.51 22.912-.367.249-15.51-22.913-.038-.124.405-.124zm-.405.124V7.68l.405.598-.405.124zm0 22.913V8.402h.443v22.913l-.222.221-.221-.222zm.443 0v.221h-.222l.222-.222zm-2.83-.222h2.608v.443h-2.608l-.222-.222.222-.221zm0 .443h-.222v-.222l.222.222zm.222-26.271v26.05h-.443V5.264l.222-.222.221.222zm-.443 0v-.222h.222l-.222.222zM134.192 5.265h7.014c2.092 0 3.96.217 5.605.652 1.645.435 3.196 1.245 4.653 2.432 1.457 1.187 2.608 2.655 3.454 4.406a12.45 12.45 0 0 1 1.269 5.482c0 1.833-.37 3.595-1.11 5.287a13.026 13.026 0 0 1-3.225 4.46 11.999 11.999 0 0 1-4.83 2.696c-1.504.423-3.384.634-5.64.634h-7.19V5.264zm5.957 23.688c2.209 0 3.842-.106 4.9-.318a10.202 10.202 0 0 0 4.512-2.08c2.679-2.09 4.018-4.864 4.018-8.318 0-3.36-1.351-6.11-4.053-8.249-1.293-1.01-2.773-1.68-4.442-2.009-1.175-.234-2.82-.352-4.935-.352h-3.348v21.326h3.348z" fill="#000"></path><path d="M141.206 5.486h-7.014v-.443h7.014v.443zm5.662.217l-.114.428-.152-.04-.154-.038-.156-.037-.156-.035-.159-.035-.159-.033-.161-.032-.162-.031-.163-.03-.165-.028-.166-.027-.167-.026-.169-.025-.17-.023-.171-.022-.173-.02-.174-.02-.175-.018-.177-.017-.178-.016-.179-.015-.181-.013-.181-.012-.184-.01-.185-.01-.185-.009-.188-.007-.189-.005-.189-.005-.192-.003-.192-.002h-.194v-.443h.197l.195.002.194.003.194.005.191.006.191.007.189.008.188.01.187.01.185.013.184.013.183.015.181.016.18.017.179.019.177.02.177.02.174.023.174.024.172.025.171.027.17.028.168.028.168.03.166.032.164.033.164.034.162.036.161.037.159.038.159.04.157.04h-.001zm4.736 2.474l-.28.344-.135-.109-.135-.106-.137-.104-.136-.102-.136-.1-.138-.097-.138-.095-.138-.093-.139-.091-.139-.089-.14-.087-.141-.084-.141-.082-.141-.08-.142-.078-.143-.076-.143-.073-.144-.072-.144-.07-.144-.066-.146-.065-.145-.063-.146-.06-.147-.058-.147-.056-.148-.055-.148-.051-.149-.05-.15-.048-.149-.045-.151-.043-.151-.041.113-.429.158.043.156.045.156.047.155.05.155.051.154.054.154.056.153.059.152.06.152.063.151.065.151.068.15.069.149.072.149.074.149.076.147.079.148.08.146.083.146.086.145.087.145.09.144.091.144.095.143.096.142.098.142.1.142.104.14.105.14.108.14.11.138.11h.002zm3.514 4.482l-.399.192-.079-.16-.081-.16-.082-.157-.085-.156-.086-.154-.087-.152-.09-.151-.091-.15-.093-.147-.094-.146-.097-.144-.098-.143-.1-.14-.102-.14-.103-.137-.105-.137-.107-.134-.109-.133-.11-.13-.112-.13-.114-.128-.116-.126-.118-.125-.119-.123-.121-.122-.122-.12-.125-.118-.126-.117-.128-.115-.13-.113-.132-.112-.133-.11.28-.344.138.114.136.116.134.117.133.12.131.12.129.123.127.124.126.126.123.127.122.13.12.13.118.133.116.134.115.136.112.138.111.139.109.14.106.144.106.144.103.146.102.147.1.15.098.15.096.153.094.155.093.156.091.157.088.16.087.16.086.163.083.164.081.166zm1.291 5.577h-.443l-.002-.175-.003-.174-.007-.175-.008-.173-.011-.174-.013-.173-.016-.172-.018-.172-.021-.171-.023-.172-.026-.17-.028-.17-.03-.17-.033-.17-.035-.168-.038-.169-.041-.167-.042-.168-.045-.167-.048-.167-.049-.166-.053-.166-.054-.165-.058-.165-.06-.165-.062-.164-.064-.164-.067-.163-.07-.163-.071-.163-.075-.162-.076-.161.399-.193.079.167.077.168.074.168.072.168.069.17.067.169.065.17.061.17.059.171.057.171.054.172.052.172.049.173.047.173.044.173.042.174.039.175.036.175.034.176.032.176.029.176.027.177.024.177.021.178.019.178.016.18.014.178.012.18.008.18.007.18.003.181.002.181zm-1.129 5.377l-.406-.178.067-.156.065-.157.063-.157.061-.157.058-.158.057-.158.054-.159.052-.159.05-.16.048-.159.046-.16.043-.16.042-.161.04-.162.037-.162.035-.162.033-.163.031-.163.028-.163.027-.164.025-.164.022-.164.02-.166.018-.165.016-.166.014-.166.012-.167.009-.167.007-.168.006-.168.003-.168.001-.169h.443l-.001.175-.003.174-.006.173-.008.174-.01.173-.012.172-.014.172-.017.172-.019.17-.021.171-.023.17-.025.17-.028.17-.03.17-.032.168-.034.168-.037.168-.038.167-.041.167-.043.167-.045.166-.048.166-.049.165-.052.165-.054.164-.056.164-.059.163-.06.163-.063.163-.065.162-.067.162-.07.161h.003zm-3.279 4.534l-.298-.328.129-.118.127-.12.126-.122.123-.122.121-.123.12-.125.118-.126.115-.127.114-.127.112-.13.11-.13.107-.132.106-.133.104-.134.102-.135.1-.136.098-.138.096-.139.095-.14.092-.14.09-.143.089-.143.086-.145.085-.145.082-.148.081-.148.079-.15.077-.15.075-.151.073-.153.071-.154.069-.155.406.177-.071.16-.074.16-.076.159-.077.157-.08.155-.081.155-.084.153-.086.152-.087.151-.09.15-.091.149-.094.147-.096.146-.097.145-.1.143-.101.142-.104.141-.105.14-.108.14-.109.137-.112.136-.113.135-.116.134-.117.132-.119.132-.122.13-.123.128-.125.128-.128.126-.129.125-.131.124-.133.123-.001-.002zm-4.918 2.746l-.12-.427h-.001l.166-.048.165-.05.164-.054.162-.055.161-.058.161-.06.159-.061.157-.065.157-.066.156-.069.154-.07.153-.073.153-.075.151-.077.149-.08.149-.081.147-.084.147-.086.145-.088.144-.09.143-.093.142-.095.141-.097.139-.1.139-.1.137-.104.136-.106.135-.108.134-.11.133-.113.132-.114.13-.117.298.327-.135.121-.136.12-.138.116-.138.114-.14.112-.141.11-.142.107-.144.105-.144.103-.146.1-.148.1-.148.096-.149.094-.151.091-.152.09-.153.086-.154.085-.156.082-.157.08-.158.078-.159.076-.16.073-.161.071-.163.069-.164.066-.165.065-.166.061-.167.06-.169.058-.17.055-.17.053-.173.05h-.001zm-5.7.643v-.444h.209l.207-.002.205-.003.202-.004.2-.006.198-.006.196-.008.193-.01.191-.01.189-.012.187-.013.185-.014.182-.015.18-.017.178-.017.175-.02.174-.02.171-.02.168-.024.167-.024.164-.025.162-.026.16-.028.157-.028.156-.03.153-.031.151-.033.148-.033.147-.035.144-.036.142-.037.139-.039.12.427-.145.04-.146.038-.149.037-.152.037-.153.034-.155.033-.157.033-.16.03-.162.03-.164.028-.166.027-.168.026-.171.024-.172.023-.175.022-.177.021-.179.02-.182.018-.183.017-.186.015-.187.014-.19.014-.192.012-.195.01-.196.01-.199.008-.201.007-.203.005-.205.005-.208.003-.209.001-.212.001h-.001zm-7.191-.444h7.191v.444h-7.191l-.221-.222.221-.221zm0 .444h-.221v-.222l.221.222zm.222-26.271v26.05h-.443V5.264l.222-.222.221.222zm-.443 0v-.222h.222l-.222.222zm11.036 23.153l.085.435h.001l-.104.02-.106.019-.11.018-.114.019-.116.017-.12.016-.123.017-.126.015-.129.015-.133.014-.136.014-.14.012-.142.013-.146.011-.15.01-.152.011-.156.01-.16.009-.162.008-.166.008-.169.007-.173.007-.176.006-.179.005-.183.005-.186.004-.189.004-.193.002-.196.003-.2.001-.203.001h-.206v-.443h.406l.198-.002.194-.002.192-.003.187-.004.185-.004.181-.005.177-.005.174-.006.171-.006.168-.007.163-.008.161-.009.157-.008.153-.01.15-.01.147-.01.143-.012.14-.012.137-.013.133-.013.129-.014.126-.014.123-.015.119-.015.116-.017.112-.016.109-.017.105-.018.101-.019.099-.019h.002zm4.418-2.037l.273.35.002-.003-.126.1-.128.098-.129.096-.129.094-.132.091-.132.09-.133.086-.134.085-.136.083-.137.08-.138.079-.139.076-.14.074-.142.072-.142.07-.143.067-.145.065-.146.063-.147.061-.148.059-.149.056-.15.054-.151.053-.152.05-.154.047-.155.046-.155.044-.157.041-.158.04-.159.036-.16.035-.161.032-.084-.435.155-.031.153-.033.153-.036.152-.037.15-.04.149-.041.149-.044.147-.046.146-.048.145-.05.144-.052.142-.054.142-.056.14-.059.14-.06.138-.063.138-.064.136-.067.135-.069.134-.07.133-.074.132-.075.131-.077.13-.08.129-.08.127-.084.127-.086.126-.087.124-.09.123-.092.123-.094.121-.096.003-.002-.001.002zm3.933-8.144h.443l-.004.327-.012.324-.02.32-.028.315-.036.312-.044.308-.052.304-.06.3-.068.296-.077.292-.084.289-.092.284-.101.28-.108.276-.117.273-.124.268-.133.264-.14.26-.149.256-.157.252-.164.247-.173.243-.181.24-.188.235-.197.23-.204.227-.212.223-.22.218-.228.215-.236.21-.244.206-.251.201-.273-.35.243-.193.235-.199.227-.202.219-.206.212-.21.204-.213.195-.218.189-.22.18-.226.172-.228.165-.233.158-.236.149-.24.142-.245.134-.248.126-.252.119-.256.112-.26.103-.263.096-.268.088-.272.081-.276.073-.28.065-.283.058-.288.05-.291.042-.297.035-.3.027-.304.019-.308.012-.312.004-.317v-.001zm-3.968-8.074l.273-.35.001.001.253.206.246.21.237.213.23.217.222.22.214.225.206.228.198.232.19.236.182.24.174.243.166.248.157.25.15.255.142.258.134.262.125.266.118.269.109.273.101.276.094.28.084.285.077.287.069.29.061.295.053.298.044.302.036.305.029.309.02.312.012.315.004.319h-.443l-.004-.308-.011-.303-.02-.3-.027-.297-.035-.293-.043-.29-.05-.285-.058-.282-.066-.278-.073-.275-.081-.271-.089-.268-.097-.264-.104-.26-.112-.257-.12-.254-.128-.25-.135-.246-.143-.243-.151-.24-.159-.236-.166-.233-.175-.23-.182-.226-.189-.222-.198-.22-.206-.215-.214-.213-.221-.209-.229-.205-.238-.202-.245-.2.001.001v-.001zm-4.349-1.967l.087-.434h-.001l.159.032.158.035.157.036.155.038.155.041.153.043.153.045.151.047.15.049.149.05.148.054.147.055.145.056.145.06.143.06.143.063.141.066.14.067.139.07.138.07.136.074.136.075.135.078.133.08.132.08.132.084.13.086.128.087.128.09.127.092.125.094.125.095-.273.35-.119-.092-.121-.09-.121-.088-.122-.086-.124-.084-.124-.082-.126-.08-.127-.078-.127-.076-.129-.074-.13-.072-.131-.07-.132-.069-.132-.066-.135-.064-.135-.063-.136-.06-.138-.059-.138-.056-.14-.055-.14-.053-.142-.05-.143-.05-.144-.046-.146-.045-.146-.043-.147-.041-.148-.04-.15-.037-.151-.035-.151-.033-.153-.031h-.001zm-4.891-.348v-.443h.197l.195.001.193.002.189.002.187.003.184.004.182.005.178.005.176.006.173.006.171.008.167.008.166.008.162.01.16.01.156.01.154.012.152.012.149.013.146.014.143.014.14.015.138.016.135.016.133.017.13.018.127.018.125.02.122.02.119.02.116.021.114.023-.086.434-.11-.021-.112-.02-.115-.02-.117-.02-.121-.019-.123-.018-.127-.017-.129-.017-.131-.016-.135-.015-.138-.015-.14-.014-.143-.013-.146-.013-.149-.012-.151-.01-.154-.011-.158-.01-.16-.01-.162-.008-.166-.008-.168-.007-.171-.007-.174-.006-.177-.005-.179-.004-.183-.004-.185-.003-.187-.002-.191-.002-.194-.001h-.197zm-3.349-.443h3.349v.443h-3.349l-.222-.221.222-.222zm-.222.222v-.222h.222l-.222.222zm0 21.326V7.627h.443v21.326l-.221.221-.222-.221zm.222.221h-.222v-.221l.222.221zm3.349 0h-3.349v-.443h3.349v.443zM169.371 5.265h2.89l11.174 26.05-2.837.005-3.749-8.748H164.7l-3.766 8.736-2.808.006 11.245-26.05zm6.427 14.945l-4.982-11.973-5.093 11.973h10.075z" fill="#000"></path><path d="M172.262 5.486h-2.891v-.443h2.891l.203.134-.203.31zm0-.443h.146l.057.134-.203-.134zm10.97 26.358L172.058 5.352l.407-.175 11.174 26.05-.203.308-.204-.134zm.407-.174l.132.308h-.335l.203-.308zm-3.042-.129l2.838-.005.001.442-2.838.006-.204-.134.203-.309zm.001.443h-.146l-.058-.134.205.134h-.001zm-3.545-9.056l3.749 8.748-.408.174-3.748-8.748.204-.309.203.135zm-.203-.135h.146l.057.135-.203-.135zm-12.149 0h12.149v.444h-12.149l-.204-.31.204-.134zm-.204.134l.058-.134h.146l-.204.134zm-3.766 8.736l3.766-8.736.407.176-3.766 8.736-.202.134-.204-.31h-.001zm.407.176l-.057.133h-.146l.203-.133zm-3.012-.303l2.808-.006.001.442-2.808.006-.204-.309.203-.133zm.001.442l-.338.001.134-.31.204.31zm11.448-26.183l-11.245 26.05-.407-.176 11.245-26.05.203-.133.203.309h.001zm-.407-.176l.058-.133h.146l-.204.133zm1.853 2.976l4.982 11.973-.409.17-4.982-11.973.001-.171.408.001zm-.409-.001l.207-.485.202.486-.409-.001zm-5.093 11.973l5.093-11.973.408.173-5.094 11.973-.203.135-.204-.308zm.204.308h-.335l.131-.308.204.308zm10.075 0h-10.075v-.443h10.075l.205.136-.205.307zm.205-.307l.127.307h-.332l.205-.307zM186.502 5.265h6.204c1.786 0 3.208.064 4.265.194 1.058.129 2.103.487 3.138 1.075 1.316.752 2.32 1.75 3.013 2.996.694 1.245 1.04 2.65 1.04 4.224 0 2.115-.752 3.948-2.256 5.5-1.498 1.55-3.307 2.326-5.417 2.326l7.332 9.729-3.254.006-8.848-11.81H193.2c1.245 0 2.197-.034 2.855-.105.658-.07 1.363-.27 2.115-.6 1.081-.493 1.915-1.198 2.503-2.114.587-.917.881-1.974.881-3.173 0-.916-.217-1.792-.652-2.626a5.654 5.654 0 0 0-1.78-2.044 5.87 5.87 0 0 0-2.556-1.005c-.952-.14-2.062-.211-3.331-.211h-4.124v23.688h-2.609V5.265z" fill="#000"></path><path d="M192.706 5.486h-6.204v-.443h6.204v.443zm4.292-.248l-.054.44-.098-.011-.101-.012-.103-.01-.106-.012-.107-.01-.11-.01-.112-.01-.114-.009-.117-.009-.118-.008-.121-.008-.122-.008-.125-.007-.127-.007-.129-.007-.132-.006-.133-.006-.136-.006-.138-.005-.14-.005-.142-.004-.144-.004-.147-.004-.148-.003-.151-.003-.153-.003-.155-.002-.158-.002-.159-.001h-.162l-.164-.002h-.165v-.443h.166l.165.001.163.001.16.001.159.002.156.003.154.002.152.003.15.003.148.004.145.004.144.005.142.004.139.006.137.005.136.006.133.006.131.007.128.007.127.008.125.007.122.008.121.009.118.01.117.008.114.01.112.01.11.011.108.011.105.011.104.012.101.012h-.001zm3.221 1.103l-.22.385-.094-.053-.095-.052-.095-.05-.096-.05-.095-.048-.094-.046-.096-.045-.095-.044-.095-.043-.095-.041-.095-.04-.095-.04-.096-.036-.095-.036-.095-.035-.096-.033-.095-.032-.096-.03-.095-.03-.096-.028-.095-.027-.096-.025-.096-.025-.095-.023-.096-.02-.096-.021-.096-.019-.096-.018-.096-.016-.096-.015-.096-.013-.097-.013.054-.44.102.013.102.015.102.016.102.017.102.02.101.02.102.02.101.023.102.025.101.025.101.027.101.028.101.03.101.031.101.033.101.034.1.035.101.036.1.038.1.04.101.04.1.042.1.043.1.045.1.046.099.047.1.049.099.05.1.052.099.053.099.054.099.056h.001zm3.097 3.08l-.387.217-.064-.113-.066-.112-.067-.11-.07-.108-.071-.107-.073-.105-.074-.104-.076-.103-.079-.102-.079-.1-.082-.098-.084-.097-.085-.096-.087-.094-.089-.093-.09-.092-.092-.09-.095-.089-.096-.087-.097-.086-.1-.085-.101-.083-.104-.082-.105-.08-.107-.08-.108-.077-.11-.077-.113-.075-.114-.073-.116-.073-.118-.07-.119-.07.22-.385.125.073.124.074.121.076.12.078.118.079.117.08.114.082.112.083.111.085.109.087.108.088.105.09.103.09.102.093.099.094.098.096.096.097.094.098.092.1.091.102.088.103.087.104.085.107.083.107.081.11.079.11.077.112.075.113.074.116.071.116.07.118.068.12.001-.001zm1.068 4.333h-.443l-.001-.144-.003-.143-.004-.143-.007-.14-.009-.14-.011-.14-.013-.137-.015-.137-.017-.136-.018-.135-.021-.134-.023-.133-.025-.131-.026-.131-.029-.13-.031-.129-.032-.128-.035-.127-.036-.126-.039-.125-.041-.124-.042-.123-.045-.123-.046-.12-.049-.121-.05-.12-.052-.118-.055-.118-.056-.116-.058-.116-.06-.115-.062-.114.387-.216.066.12.064.122.061.122.06.124.057.124.056.126.053.126.052.127.049.128.047.13.045.13.043.13.04.133.039.133.036.133.035.135.032.136.03.137.028.138.027.139.023.14.022.14.02.141.018.143.015.143.014.145.011.145.01.147.007.147.005.149.003.149.001.15h-.002zm-2.318 5.653l-.318-.308.136-.143.131-.145.127-.145.122-.148.118-.149.114-.15.109-.152.106-.154.1-.154.096-.157.093-.158.087-.16.084-.161.079-.163.075-.164.07-.166.066-.167.062-.17.058-.17.054-.172.049-.174.045-.176.041-.177.036-.179.032-.18.028-.182.024-.184.019-.186.015-.187.011-.19.006-.19.003-.193h.443l-.003.203-.006.2-.011.2-.016.198-.02.196-.025.194-.03.193-.034.192-.038.19-.043.187-.048.187-.052.184-.057.183-.061.182-.066.18-.07.177-.075.177-.08.174-.084.173-.089.17-.093.17-.097.168-.102.165-.106.164-.111.162-.116.16-.119.16-.125.156-.128.155-.134.153-.137.152-.142.15-.003-.001zm-5.399 2.039l-.354.266.177-.355.192-.002.19-.006.188-.012.186-.015.185-.02.182-.024.181-.029.179-.033.177-.037.175-.042.174-.046.172-.051.17-.055.168-.06.166-.063.165-.068.164-.073.161-.077.16-.082.158-.086.156-.09.155-.095.153-.099.151-.104.15-.108.148-.112.146-.117.145-.121.142-.126.142-.13.139-.136.138-.14.319.308-.145.147-.146.142-.149.138-.151.133-.152.128-.155.124-.157.119-.158.115-.161.11-.162.105-.164.1-.167.097-.168.091-.17.087-.172.082-.174.077-.176.073-.177.068-.18.063-.181.059-.183.053-.184.05-.187.044-.188.04-.19.035-.192.031-.194.025-.195.021-.197.017-.198.011-.201.008-.202.002.177-.355h-.001zm-.354.266l-.267-.355h.444l-.177.355zm7.332 9.73l-7.332-9.73.354-.266 7.332 9.729-.177.355-.177-.089zm.354-.267l.267.354h-.443l.176-.354zm-3.432-.082l3.255-.006v.443l-3.254.005-.178-.088.177-.354zm.001.442h-.111l-.067-.088.178.088zm-8.671-12.163l8.847 11.81-.354.265-8.848-11.81.177-.354.178.09zm-.355.266l-.266-.355h.443l-.177.355zm.953.089h-.776v-.444h.776v.444zm.705 0h-.705v-.444h.705v.444zm2.832-.548l.047.44-.064.007-.066.007-.067.006-.069.006-.07.006-.072.005-.074.005-.076.006-.077.004-.079.005-.08.005-.083.004-.084.004-.085.004-.088.003-.089.004-.091.003-.092.003-.095.003-.095.002-.097.002-.1.003-.101.002-.103.001-.104.002-.106.001-.108.001-.109.001h-.111l-.113.001h-.115l-.116.001v-.443h.23l.112-.001h.11l.109-.002h.107l.105-.002.104-.002.101-.001.1-.002.098-.003.097-.002.094-.002.093-.003.091-.003.09-.003.088-.003.086-.004.084-.004.082-.004.081-.004.079-.005.077-.004.076-.005.074-.005.072-.005.07-.005.068-.006.067-.005.065-.006.063-.007.061-.006h-.002zm2.046-.58l.184.403-.003.001-.072.031-.071.03-.072.03-.071.029-.071.028-.07.027-.071.027-.07.026-.07.025-.07.024-.069.024-.069.023-.069.022-.068.02-.069.021-.068.02-.068.019-.068.018-.067.017-.068.017-.067.016-.067.015-.066.014-.066.014-.067.013-.066.012-.065.01-.065.011-.065.01-.065.009-.065.008-.064.007-.048-.44.059-.007.06-.008.06-.008.06-.009.061-.01.06-.01.061-.01.061-.013.062-.012.063-.014.062-.014.063-.014.063-.016.063-.016.064-.017.064-.018.064-.018.065-.02.064-.02.065-.02.066-.021.066-.022.066-.023.066-.024.067-.025.066-.025.068-.026.068-.027.068-.027.068-.028.068-.03.069-.03-.003.002-.001-.001zm2.409-2.033l.373.239-.058.088-.06.088-.061.086-.062.085-.064.084-.066.082-.067.081-.069.08-.07.079-.072.077-.073.076-.075.074-.075.073-.078.072-.079.071-.081.07-.082.068-.083.067-.085.065-.087.064-.087.063-.09.062-.091.06-.092.058-.094.058-.095.056-.096.055-.098.053-.1.053-.101.05-.102.05-.103.049-.184-.403.097-.046.096-.046.095-.048.093-.05.091-.049.091-.051.088-.053.087-.053.086-.055.085-.056.083-.057.081-.058.08-.06.079-.06.077-.061.076-.064.074-.064.073-.065.071-.066.07-.068.069-.069.067-.07.066-.07.065-.073.063-.073.062-.075.06-.076.059-.077.058-.078.057-.08.054-.08.054-.082zm.846-3.053h.443l-.001.115-.002.114-.005.114-.006.113-.008.112-.01.112-.011.11-.014.11-.015.11-.017.108-.019.107-.02.107-.022.106-.024.105-.026.104-.028.103-.029.103-.032.102-.033.1-.035.1-.036.1-.039.098-.04.098-.042.097-.044.096-.046.095-.048.094-.049.093-.051.093-.053.091-.055.091-.056.09-.373-.239.052-.082.05-.084.049-.085.047-.084.045-.086.044-.087.042-.087.04-.088.039-.09.037-.09.036-.09.034-.092.032-.092.03-.093.029-.094.027-.095.026-.096.024-.097.022-.097.021-.098.019-.1.017-.1.016-.1.014-.101.013-.103.01-.103.009-.104.008-.106.006-.106.004-.106.002-.108.001-.108h.001zm-.627-2.524l.393-.205.041.081.041.082.039.081.037.082.036.082.035.083.034.082.033.084.031.083.03.084.028.084.027.084.026.085.024.084.024.085.021.085.021.085.019.086.018.086.017.087.015.086.014.087.012.087.011.087.01.087.009.088.007.088.006.088.005.089.003.088.002.089.001.09h-.443l-.001-.083-.002-.082-.003-.083-.004-.081-.005-.082-.007-.081-.008-.081-.009-.08-.01-.081-.012-.08-.013-.08-.014-.08-.015-.08-.016-.08-.018-.078-.019-.08-.02-.078-.021-.078-.023-.078-.024-.078-.025-.078-.026-.078-.028-.077-.029-.078-.03-.076-.031-.078-.032-.076-.034-.076-.035-.076-.036-.076-.038-.076-.038-.076h-.001zm-1.711-1.966l.255-.362.072.052.072.052.071.054.069.055.069.055.068.057.067.058.066.058.065.06.064.06.063.062.063.062.061.063.06.064.059.065.059.066.057.067.057.068.055.069.055.07.053.07.052.071.052.072.05.074.05.074.049.075.047.076.047.077.045.078.045.079.044.08.043.08-.393.204-.04-.074-.04-.075-.042-.073-.042-.072-.043-.072-.045-.07-.045-.07-.045-.069-.047-.067-.048-.068-.048-.066-.05-.065-.05-.064-.051-.064-.052-.062-.053-.062-.054-.06-.055-.061-.055-.059-.057-.058-.057-.058-.059-.057-.059-.055-.06-.055-.061-.054-.062-.054-.062-.052-.064-.052-.065-.05-.065-.05-.067-.05-.067-.048-.001.001zm-2.461-.966l.065-.438.092.014.091.015.091.017.09.018.09.019.089.02.088.021.088.023.087.023.087.025.086.027.086.027.085.028.084.03.084.03.083.033.083.033.082.034.081.036.081.037.08.037.08.04.079.04.078.041.078.043.077.044.077.045.076.046.075.047.075.049.074.05.073.05-.255.363-.068-.048-.068-.046-.07-.045-.069-.043-.071-.043-.071-.042-.071-.04-.072-.04-.073-.038-.073-.037-.074-.036-.074-.036-.075-.033-.075-.033-.076-.032-.077-.031-.077-.03-.078-.028-.078-.028-.079-.026-.079-.026-.08-.024-.081-.023-.081-.022-.082-.021-.082-.02-.083-.019-.084-.018-.084-.016-.085-.016-.086-.014-.085-.013h.001zm-3.299-.21v-.443h.119l.119.001.117.001.117.002.116.001.114.003.114.002.113.003.112.004.111.004.11.004.109.005.109.005.107.006.106.006.106.006.105.007.103.007.103.008.102.008.101.009.1.009.099.009.099.01.097.01.096.01.096.012.095.012.093.011.093.013.092.012.091.014-.065.438-.089-.013-.089-.013-.09-.012-.092-.011-.092-.011-.093-.01-.094-.011-.095-.01-.096-.01-.097-.01-.098-.008-.099-.009-.1-.008-.1-.007-.102-.007-.103-.007-.103-.006-.105-.006-.105-.006-.107-.005-.107-.005-.108-.004-.109-.004-.111-.003-.111-.003-.112-.003-.113-.002-.114-.002-.114-.001-.116-.001h-.235zm-4.124-.443h4.124v.444h-4.124l-.222-.222.222-.222zm-.222.222v-.222h.222l-.222.222zm0 23.688V7.626h.443v23.688l-.221.221-.222-.221zm.443 0v.221h-.221l.221-.221zm-2.83-.222h2.609v.444h-2.609l-.221-.222.221-.222zm0 .444h-.221v-.222l.221.221zm.222-26.272v26.05h-.443V5.264l.222-.221.221.221zm-.443 0v-.221h.222l-.222.221zM211.248 7.627h-5.993V5.265h14.523v2.362h-5.922v23.688h-2.608V7.627z" fill="#000"></path><path d="M205.255 7.405h5.993v.443h-5.993l-.221-.221.221-.222zm0 .443h-.221v-.221l.221.221zm.222-2.583v2.362h-.443V5.265l.222-.222.221.222zm-.443 0v-.222h.222l-.222.222zm14.745.222h-14.523v-.444h14.523l.221.222-.221.222zm0-.444H220v.222l-.221-.222zm-.222 2.584V5.265H220v2.362l-.222.221-.221-.221zm.443 0v.221h-.222l.222-.221zm-6.143-.222h5.922v.443h-5.922l-.222-.221.222-.222zm-.222.222v-.222h.222l-.222.222zm0 23.687V7.627h.443v23.688l-.222.221-.221-.222zm.443 0v.222h-.222l.222-.222zm-2.83-.221h2.609v.443h-2.609l-.222-.222.222-.221zm0 .443h-.222v-.222l.222.222zm.222-23.91v23.688h-.443V7.627l.221-.222.222.222zm-.222-.221h.222v.222l-.222-.222zM62.882 38.258c.71 0 1.339.182 1.89.547.554.362.98.875 1.285 1.528.31.656.46 1.403.46 2.243v6.762a.171.171 0 0 1-.056.132.171.171 0 0 1-.132.057h-.241a.2.2 0 0 1-.14-.057.163.163 0 0 1-.06-.132v-6.75c0-.72-.132-1.365-.392-1.927a3.103 3.103 0 0 0-1.105-1.32 2.85 2.85 0 0 0-1.618-.476c-.71 0-1.328.16-1.863.476a3.152 3.152 0 0 0-1.23 1.346c-.29.581-.433 1.26-.433 2.033l-.012-.011v6.63a.182.182 0 0 1-.053.131.183.183 0 0 1-.132.057h-.245a.199.199 0 0 1-.147-.057.167.167 0 0 1-.064-.132v-6.75c0-.72-.128-1.365-.392-1.927a3.115 3.115 0 0 0-1.098-1.32 2.83 2.83 0 0 0-1.614-.476c-.705 0-1.328.16-1.86.476a3.202 3.202 0 0 0-1.24 1.346c-.29.581-.434 1.26-.434 2.033v6.64c0 .125-.068.19-.2.19h-.241c-.128 0-.189-.065-.189-.19V38.61c0-.133.06-.197.189-.197h.143c.056 0 .106.015.143.05a.174.174 0 0 1 .053.127l.068 2.022c.302-.747.773-1.324 1.407-1.735.637-.415 1.395-.619 2.273-.619.83 0 1.554.253 2.165.762.61.51 1.037 1.196 1.282 2.067.242-.886.702-1.577 1.373-2.078.675-.501 1.494-.75 2.459-.75h.001zm17.797.155c.135 0 .2.064.2.196v10.74c0 .06-.02.106-.053.143a.198.198 0 0 1-.147.057h-.144a.21.21 0 0 1-.132-.05.212.212 0 0 1-.064-.139l-.09-3.028a5.424 5.424 0 0 1-1.211 1.769 5.498 5.498 0 0 1-1.806 1.18 5.665 5.665 0 0 1-2.188.422 5.547 5.547 0 0 1-4.887-2.84 5.764 5.764 0 0 1-.747-2.896c0-1.075.25-2.051.747-2.934a5.477 5.477 0 0 1 2.033-2.074 5.504 5.504 0 0 1 2.843-.758c.777 0 1.505.14 2.195.419a5.543 5.543 0 0 1 3.021 2.953l.09-2.983a.218.218 0 0 1 .061-.129.183.183 0 0 1 .136-.049h.143v.001zm-5.567 10.672c.95 0 1.818-.23 2.606-.686a5.055 5.055 0 0 0 1.867-1.863c.46-.784.686-1.644.686-2.58a5.075 5.075 0 0 0-2.568-4.461 5.14 5.14 0 0 0-2.614-.686 4.9 4.9 0 0 0-2.545.686 5.023 5.023 0 0 0-1.83 1.867 5.15 5.15 0 0 0-.674 2.595c0 .935.226 1.795.679 2.58a5.058 5.058 0 0 0 1.848 1.862 4.939 4.939 0 0 0 2.545.687zm14.572-10.883c.833 0 1.576.18 2.232.547a3.88 3.88 0 0 1 1.532 1.53c.365.657.547 1.403.547 2.244v6.815a.171.171 0 0 1-.057.132.178.178 0 0 1-.132.056h-.241a.214.214 0 0 1-.151-.056.162.162 0 0 1-.06-.132v-6.796c0-.72-.159-1.365-.48-1.93-.32-.57-.769-1.011-1.338-1.328-.57-.317-1.222-.475-1.95-.475-.758 0-1.46.177-2.1.524-.642.35-1.15.822-1.528 1.414a3.506 3.506 0 0 0-.57 1.927v6.686c0 .125-.067.188-.199.188h-.241c-.129 0-.189-.064-.189-.188V38.608c0-.131.06-.196.189-.196h.143c.056 0 .105.015.143.05a.174.174 0 0 1 .053.128l.079 2.251c.234-.517.57-.973 1.003-1.369a4.876 4.876 0 0 1 3.314-1.27zm16.993.211c.132 0 .2.06.2.185v10.751c0 .06-.019.106-.057.143a.188.188 0 0 1-.143.057h-.143a.195.195 0 0 1-.132-.05.21.21 0 0 1-.068-.139l-.064-2.255a4.294 4.294 0 0 1-1.007 1.373 4.81 4.81 0 0 1-1.512.931 5.002 5.002 0 0 1-1.814.34c-.834-.004-1.573-.185-2.225-.55a3.88 3.88 0 0 1-1.528-1.524c-.362-.652-.547-1.395-.547-2.236v-6.83c0-.049.019-.094.053-.124a.165.165 0 0 1 .124-.053h.245a.22.22 0 0 1 .148.053c.04.03.06.075.06.124v6.807c0 .72.162 1.366.483 1.935.32.566.765 1.007 1.342 1.323.573.317 1.226.476 1.953.476a4.28 4.28 0 0 0 2.09-.524 4.161 4.161 0 0 0 1.531-1.414 3.52 3.52 0 0 0 .569-1.928v-6.686c0-.124.065-.185.197-.185h.245zm8.617-5.88c.064 0 .12.02.17.057.049.034.071.08.071.132v.241a.16.16 0 0 1-.064.129.27.27 0 0 1-.166.049 2.84 2.84 0 0 0-1.471.388 2.768 2.768 0 0 0-1.048 1.086c-.26.468-.388 1.007-.388 1.618v2.199h2.662c.061 0 .11.015.143.045.038.03.057.071.057.12v.223a.19.19 0 0 1-.057.143.185.185 0 0 1-.143.057h-2.662v10.34c0 .125-.065.188-.2.188h-.276a.154.154 0 0 1-.117-.049.25.25 0 0 1-.037-.139V39.02h-1.811a.176.176 0 0 1-.139-.057.201.201 0 0 1-.049-.143v-.212c0-.049.015-.094.049-.124a.187.187 0 0 1 .139-.053h1.811v-2.187c0-.728.154-1.372.464-1.938.309-.562.735-1 1.27-1.309a3.534 3.534 0 0 1 1.792-.464zm12.569 5.88c.136 0 .2.064.2.196v10.74c0 .06-.019.106-.053.143a.196.196 0 0 1-.147.057h-.143a.209.209 0 0 1-.132-.05.212.212 0 0 1-.065-.139l-.09-3.028a5.413 5.413 0 0 1-1.211 1.769 5.493 5.493 0 0 1-1.806 1.18 5.662 5.662 0 0 1-2.187.422 5.548 5.548 0 0 1-4.887-2.84 5.762 5.762 0 0 1-.747-2.896c0-1.075.249-2.051.747-2.934a5.476 5.476 0 0 1 2.032-2.074 5.507 5.507 0 0 1 2.844-.758c.777 0 1.505.14 2.195.419a5.542 5.542 0 0 1 3.021 2.953l.09-2.983a.22.22 0 0 1 .061-.129.182.182 0 0 1 .135-.049h.144l-.001.001zm-5.566 10.672c.95 0 1.818-.23 2.606-.686a5.052 5.052 0 0 0 1.866-1.863 4.995 4.995 0 0 0 .687-2.58 5.076 5.076 0 0 0-2.569-4.461 5.14 5.14 0 0 0-2.613-.686c-.928 0-1.776.23-2.546.686a5.026 5.026 0 0 0-1.829 1.867 5.148 5.148 0 0 0-.675 2.595c0 .935.227 1.795.679 2.58a5.063 5.063 0 0 0 1.848 1.862 4.939 4.939 0 0 0 2.546.687zm14.473.642a5.502 5.502 0 0 1-2.873-.785 5.791 5.791 0 0 1-2.06-2.112 5.688 5.688 0 0 1-.758-2.874c0-1.044.253-2.002.758-2.87a5.642 5.642 0 0 1 2.06-2.066 5.545 5.545 0 0 1 2.85-.762c.736 0 1.456.14 2.154.422.701.287 1.32.668 1.859 1.147.049.041.075.09.075.143a.23.23 0 0 1-.045.12l-.132.2c-.03.043-.076.065-.144.065a.25.25 0 0 1-.154-.064 5.809 5.809 0 0 0-1.674-1.04 5.203 5.203 0 0 0-1.939-.363 4.972 4.972 0 0 0-4.359 2.512 5.054 5.054 0 0 0-.667 2.556c0 .92.226 1.777.675 2.565a5.086 5.086 0 0 0 1.832 1.878 4.878 4.878 0 0 0 2.553.698c.687 0 1.335-.129 1.957-.381a5.336 5.336 0 0 0 1.622-1.034.278.278 0 0 1 .166-.067c.038 0 .076.018.109.056l.144.185a.23.23 0 0 1 .045.124c0 .08-.03.14-.087.178a5.843 5.843 0 0 1-1.84 1.157 5.687 5.687 0 0 1-2.127.412zm11.216-.608c.064 0 .12.015.166.05.041.03.064.074.064.123v.246c0 .049-.023.094-.072.132a.28.28 0 0 1-.181.056c-.648 0-1.241-.15-1.78-.449a3.402 3.402 0 0 1-1.274-1.225 3.296 3.296 0 0 1-.472-1.731v-7.335h-1.746c-.132 0-.196-.056-.196-.166v-.211c0-.124.064-.185.196-.185h1.746v-3.571c0-.102.053-.173.155-.207l.279-.057a.136.136 0 0 1 .064-.01c.045 0 .079.014.105.048a.196.196 0 0 1 .038.128v3.67h2.674c.124 0 .188.052.188.165v.23c0 .11-.064.166-.188.166h-2.674v7.347c0 .509.128.977.388 1.403.257.43.607.765 1.056 1.01.445.25.932.373 1.463.373h.001zm12.309-10.706c.132 0 .2.06.2.185v10.751c0 .06-.019.106-.057.143a.188.188 0 0 1-.143.057h-.143a.195.195 0 0 1-.132-.05.21.21 0 0 1-.068-.139l-.064-2.255a4.294 4.294 0 0 1-1.007 1.373 4.81 4.81 0 0 1-1.512.931 5.002 5.002 0 0 1-1.814.34c-.834-.004-1.573-.185-2.225-.55a3.88 3.88 0 0 1-1.528-1.524c-.362-.652-.547-1.395-.547-2.236v-6.83c0-.049.019-.094.053-.124a.164.164 0 0 1 .124-.053h.246c.056 0 .109.019.147.053a.15.15 0 0 1 .06.124v6.807c0 .72.162 1.366.483 1.935.32.566.765 1.007 1.342 1.323.573.317 1.226.476 1.954.476.754 0 1.448-.174 2.089-.524a4.161 4.161 0 0 0 1.531-1.414c.377-.593.57-1.234.57-1.928v-6.686c0-.124.064-.185.196-.185h.245zm10.65.585c.056.037.098.079.12.132a.14.14 0 0 1-.011.143l-.132.2c-.046.06-.091.087-.143.087a.437.437 0 0 1-.2-.076 4.097 4.097 0 0 0-.988-.486 3.196 3.196 0 0 0-1.011-.177c-.664 0-1.271.166-1.818.49-.55.328-.98.773-1.297 1.328a3.6 3.6 0 0 0-.475 1.817v6.905c0 .125-.068.189-.2.189h-.241c-.129 0-.189-.065-.189-.189V38.61c0-.132.06-.197.189-.197h.143c.056 0 .105.016.143.05a.174.174 0 0 1 .053.128l.067 2.032a3.99 3.99 0 0 1 1.464-1.734 3.873 3.873 0 0 1 2.217-.664c.366 0 .754.068 1.165.203.408.136.789.325 1.143.57h.001zm6.739-.762c1.048 0 1.976.233 2.79.701a4.939 4.939 0 0 1 1.905 1.953c.456.837.686 1.791.686 2.87a.38.38 0 0 1-.083.241.276.276 0 0 1-.237.11h-9.911c.015.901.249 1.73.702 2.497a5.078 5.078 0 0 0 4.427 2.5c.698 0 1.362-.117 1.987-.344a4.513 4.513 0 0 0 1.633-1.03.218.218 0 0 1 .147-.063c.05 0 .095.018.133.052l.143.178c.037.037.052.079.052.12 0 .06-.026.12-.086.178a5.074 5.074 0 0 1-1.84 1.139 6.471 6.471 0 0 1-2.214.388c-1.06 0-2.029-.26-2.9-.773a5.687 5.687 0 0 1-2.067-2.09 5.658 5.658 0 0 1-.758-2.873c0-1.06.246-2.029.732-2.912a5.463 5.463 0 0 1 1.987-2.081 5.252 5.252 0 0 1 2.772-.762zm-.011.618c-.838 0-1.615.204-2.323.61-.713.412-1.29.97-1.735 1.675a5.088 5.088 0 0 0-.769 2.364h9.579c-.038-.912-.261-1.719-.668-2.424a4.36 4.36 0 0 0-1.67-1.64c-.702-.389-1.505-.585-2.414-.585z" fill="#000"></path></g><defs><clipPath id="a"><path fill="#fff" d="M0 0h220v54.591H0z"></path></clipPath></defs>
		</symbol>
	
		<symbol id="video-play" viewBox="0 0 141 141">
			<path d="M58.75 96.938V44.062L94 70.5 58.75 96.938zM70.5 11.75a58.75 58.75 0 1 0 0 117.499 58.75 58.75 0 0 0 0-117.499z" fill="#fff" opacity=".81"></path>
		</symbol>
	
		<symbol id="why_delivery" viewBox="0 0 120 120">
			<path fill-rule="evenodd" clip-rule="evenodd" d="M85.683 2.949c15.225 4.174 25.207 10.355 30.417 26.955 5.225 16.536 4.319 34.317 2.345 51.322-2.831 16.794-10.856 29.398-26.678 33.993-18.768 6.375-44.767 6.375-63.535 0C12.41 110.624 4.384 98.02 1.553 81.226-.42 64.22-1.327 46.44 3.915 29.904c5.194-16.6 15.176-22.78 30.416-26.955 15.662-3.932 35.691-3.932 51.352 0z" fill="#E1322D"></path><path fill-rule="evenodd" clip-rule="evenodd" d="M17.166 31.037h54.297l.194.016c.825.064 1.666.21 2.491.485.76.26 1.505.631 2.168 1.165a7.3 7.3 0 0 1 1.926 2.184c.485.825.808 1.748.986 2.654.195.841.178 1.618.178 2.394-.016 14.594 0 29.205 0 43.799H65.234l-22.1-.017-.567-2.232a9.156 9.156 0 0 0-1.65-3.382 9.27 9.27 0 0 0-2.864-2.46l-.016-.015a9.575 9.575 0 0 0-2.637-.971 9.658 9.658 0 0 0-2.815-.13h-.016a9.366 9.366 0 0 0-2.718.712 9.794 9.794 0 0 0-2.411 1.521v.016a9.616 9.616 0 0 0-1.828 2.136 9.287 9.287 0 0 0-1.1 2.573l-.567 2.232-4.53.017H17.15a6.668 6.668 0 0 1-3.51-1.1c-1.02-.696-1.861-1.667-2.363-2.816a5.975 5.975 0 0 1-.485-1.86 9.904 9.904 0 0 1 0-1.554l.016-.097c.065-.63.243-1.23.502-1.78a6.034 6.034 0 0 1 .97-1.537 6.722 6.722 0 0 1 1.91-1.553V55.76 31.037h2.976zm59.28 49.72H45.463c-.825-3.253-3.041-6.116-5.986-7.718a12.25 12.25 0 0 0-7.2-1.472 12.375 12.375 0 0 0-6.795 2.96 12.384 12.384 0 0 0-3.85 6.23h-4.45c-1.342-.017-2.637-.874-3.17-2.12-.292-.615-.308-1.31-.243-1.99.08-.647.372-1.246.793-1.748.63-.76 1.601-1.213 2.604-1.261 0-13.203-.016-26.406 0-39.608h54.297c1.084.08 2.2.356 3.057 1.035.987.745 1.57 1.91 1.796 3.09.162.745.114 1.49.13 2.25 0 13.445-.016 26.906 0 40.352z" fill="#fff"></path><path fill-rule="evenodd" clip-rule="evenodd" d="M77.092 75.369V62.587 47.879l.017-2.976h2.96c3.155.016 6.326.016 9.497 0h6.326c1.1.032 2.12.34 3.042.808.97.502 1.796 1.198 2.459 1.942l.065.08.097.13c.259.373.647.923 1.116 1.602.421.615.761 1.149 1.052 1.602l.016.016a70.16 70.16 0 0 1 2.168 3.64 43.447 43.447 0 0 1 1.893 3.916v.032c.34.825.647 1.683.89 2.589.275.955.469 1.925.55 2.912v15.663l-.033.258a5.646 5.646 0 0 1-.404 1.294 4.305 4.305 0 0 1-1.149 1.521 4.664 4.664 0 0 1-2.071.971h-.016a6.556 6.556 0 0 1-1.472.097h-5.501l-.534-2.297c-.275-1.23-.825-2.379-1.57-3.398a9.298 9.298 0 0 0-2.766-2.508l-.032-.016a9.115 9.115 0 0 0-3.074-1.133 9.421 9.421 0 0 0-3.3 0h-.033a9.402 9.402 0 0 0-2.734.987 9.253 9.253 0 0 0-2.33 1.796l-5.145 5.469.016-7.507zm2.961 0c.016-9.158 0-18.332.016-27.49h15.758c1.295.033 2.476.777 3.317 1.732a63.926 63.926 0 0 1 2.087 3.074c1.456 2.265 2.783 4.611 3.818 7.087.599 1.488 1.084 3.041 1.214 4.643v15.176c-.065.389-.194.777-.502 1.02-.437.372-1.051.42-1.601.404h-3.188c-.744-3.252-2.88-6.148-5.76-7.814-2.507-1.505-5.581-2.04-8.445-1.489-2.556.453-4.934 1.764-6.714 3.657zm21.583-15.743c-1.311-2.767-2.945-5.355-4.708-7.863-.243-.389-.647-.712-1.1-.825-3.64 0-7.281-.017-10.905 0v8.704c5.565-.016 11.147.016 16.713-.016zM87.9 53.898v2.767h8.72a62.394 62.394 0 0 0-1.828-2.767H87.9z" fill="#fff"></path><path d="M89 76.695a9.284 9.284 0 0 1 6.57 2.735 9.284 9.284 0 0 1 2.734 6.569 9.294 9.294 0 0 1-2.735 6.585A9.27 9.27 0 0 1 89 95.302a9.28 9.28 0 0 1-9.303-9.303 9.27 9.27 0 0 1 2.718-6.57A9.294 9.294 0 0 1 89 76.696zm4.434 4.887A6.195 6.195 0 0 0 89 79.737c-1.73 0-3.3.696-4.433 1.845a6.224 6.224 0 0 0-1.844 4.417c0 1.73.712 3.3 1.844 4.433A6.195 6.195 0 0 0 89 92.276c1.732 0 3.301-.695 4.434-1.844a6.248 6.248 0 0 0 1.828-4.433 6.21 6.21 0 0 0-1.828-4.417zM33.539 76.695a9.294 9.294 0 0 1 6.585 2.735 9.27 9.27 0 0 1 2.718 6.569 9.28 9.28 0 0 1-9.303 9.303 9.27 9.27 0 0 1-6.569-2.718 9.294 9.294 0 0 1-2.734-6.585 9.284 9.284 0 0 1 2.734-6.57 9.284 9.284 0 0 1 6.569-2.734zm4.433 4.887a6.195 6.195 0 0 0-4.433-1.845 6.223 6.223 0 0 0-4.433 1.845 6.21 6.21 0 0 0-1.829 4.417c0 1.73.696 3.3 1.829 4.433a6.223 6.223 0 0 0 4.433 1.844c1.731 0 3.3-.695 4.433-1.844a6.195 6.195 0 0 0 1.845-4.433 6.157 6.157 0 0 0-1.845-4.417z" fill="#fff"></path>
		</symbol>
	
		<symbol id="why_guarantee" viewBox="0 0 120 120">
			<path fill-rule="evenodd" clip-rule="evenodd" d="M85.67 2.954c15.237 4.164 25.227 10.347 30.424 26.956 5.23 16.53 4.326 34.317 2.357 51.314-2.841 16.803-10.862 29.394-26.68 33.994-18.77 6.376-44.772 6.376-63.542 0-15.817-4.6-23.855-17.19-26.68-33.994C-.42 64.227-1.324 46.44 3.906 29.91 9.103 13.3 19.093 7.118 34.33 2.954c15.655-3.939 35.685-3.939 51.34 0z" fill="#E1322D"></path><path d="M56.312 22.566c1.582-4.165 7.086-.613 7.957 2.373 2.615 7.392-4.277 13.655-4.632 20.806-.08 3.002 2.953 4.213 5.487 3.713 6.892-.194 13.994-2.825 20.82-.937 3.794 1.582 1.857 6.086 1.405 9.04 1.404 1.259 3.825 1.856 4.245 3.906.952 2.905-1.743 4.875-3.228 6.94 1.372 2.115 4.212 4.036 3.002 6.893-1.259 1.566-2.89 2.776-4.39 4.1 1.824 5.456-.21 7.135-3.502 8.926-7.796 4.213-18.093 2.615-26.712 2.373-10.039.113-18.706-5.827-28.552-6.666.017-8.249-.048-16.497.049-24.713 6.65-1.324 8.296-8.652 12.718-12.832 6.682-6.844 12.347-14.754 15.333-23.922z" fill="#E1322D"></path><path d="M54.585 21.92c.436-1.146 1.098-1.937 1.905-2.453 1.033-.646 2.21-.775 3.405-.55.985.21 2.002.679 2.905 1.324 1.485 1.034 2.728 2.583 3.212 4.084 1.792 5.053-.129 9.362-2.066 13.704-1.162 2.615-2.34 5.23-2.47 7.813l.05.42c.08.435.338.758.677.984.452.307 1.05.452 1.663.468.29.016.597-.016.903-.08l.307-.017c2.26-.064 4.665-.435 7.086-.79 4.712-.71 9.457-1.42 14.283-.081l.21.08c4.52 1.89 3.615 5.94 2.84 9.395l-.112.533.5.306c1.485.904 2.986 1.808 3.47 3.874 1.033 3.212-.742 5.295-2.453 7.28l-.194.226.307.355c1.662 1.986 3.405 4.035 2.05 7.215l-.097.259-.162.177c-1.049 1.308-2.26 2.325-3.454 3.358l-.274.21c.694 2.63.5 4.535-.306 6.069-.92 1.76-2.486 2.808-4.423 3.858-6.827 3.712-15.188 3.244-22.902 2.824-1.663-.097-3.277-.194-4.713-.226-5.762.049-10.943-1.71-16.108-3.47-4.132-1.42-8.28-2.841-12.557-3.196l-1.694-.145V75.88a1138.08 1138.08 0 0 1 .048-16.593l.016-1.501 1.469-.291c3.55-.694 5.552-3.76 7.553-6.828 1.26-1.953 2.534-3.906 4.261-5.52 3.244-3.342 6.246-6.909 8.78-10.767 2.534-3.825 4.616-7.957 6.053-12.38l.032-.08zm3.874.678c-.146.08-.29.274-.404.581-1.55 4.73-3.776 9.136-6.488 13.236-2.695 4.084-5.859 7.861-9.264 11.364l-.049.064c-1.388 1.308-2.55 3.083-3.696 4.843-2.195 3.341-4.374 6.682-8.473 8.054-.049 5.053-.033 10.105-.033 15.141v6.49c4.084.58 7.925 1.888 11.75 3.195 4.907 1.679 9.813 3.341 14.946 3.277h.065c1.646.048 3.227.145 4.825.226 7.215.403 15.027.84 20.95-2.373 1.372-.742 2.47-1.42 2.921-2.308.468-.888.452-2.212-.274-4.407l-.388-1.146 2.115-1.856c.984-.84 1.985-1.679 2.776-2.615.258-1.033-.662-2.13-1.55-3.18-.468-.565-.936-1.13-1.355-1.76l-.694-1.065.726-1.017c.355-.5.79-1 1.243-1.517 1.033-1.227 2.146-2.518 1.727-3.777l-.049-.21c-.129-.597-.968-1.098-1.807-1.614-.63-.371-1.26-.742-1.856-1.291l-.76-.662.162-.985c.081-.532.226-1.194.372-1.872.451-2.034.984-4.407-.565-5.15-4.02-1.065-8.345-.419-12.638.227-2.42.355-4.826.726-7.327.79-.5.097-1.05.13-1.598.13-1.275-.049-2.55-.404-3.583-1.082-1.146-.742-2.002-1.872-2.292-3.341a5.46 5.46 0 0 1-.097-1.291v-.033c.161-3.276 1.469-6.214 2.776-9.136 1.63-3.664 3.26-7.296 1.953-10.976l-.032-.097c-.21-.742-.936-1.582-1.824-2.195-.484-.355-1.017-.614-1.501-.71-.307-.065-.565-.065-.71.048z" fill="#fff"></path>
		</symbol>
	
		<symbol id="why_house" viewBox="0 0 120 120">
			<path fill-rule="evenodd" clip-rule="evenodd" d="M85.67 2.94c15.224 4.18 25.233 10.35 30.427 26.968 5.234 16.519 4.318 34.311 2.348 51.308-2.825 16.797-10.845 29.395-26.665 33.993-18.766 6.388-44.775 6.388-63.56 0-15.8-4.598-23.84-17.196-26.665-33.993-1.97-16.997-2.886-34.79 2.348-51.308C9.097 13.29 19.106 7.12 34.329 2.941 49.99-.98 70.01-.98 85.671 2.94z" fill="#E1322D"></path><path d="M83.024 19.678c.617-.278 1.273-.02 1.83.299.18.537.538 1.094.339 1.672-.358 1.034-1.174 1.81-1.87 2.627-4.1 4.398-10.05 7.025-16.08 6.945-1.014.2-2.109-.656-1.99-1.711-.04-.876.836-1.493 1.612-1.632 2.906-.06 5.93-.398 8.517-1.791.418-.2.856-.418 1.274-.657 1.751-.955 3.283-2.269 4.577-3.781.537-.677.935-1.573 1.79-1.97zM56.836 24.236c3.462-3.005 8.04-4.976 12.676-4.558 1.055.776 1.075 2.687-.279 3.145-1.413.199-2.865.219-4.218.716-.259.08-.538.16-.816.259-.338.12-.677.259-1.015.398-2.209.995-4.199 2.408-5.91 4.1-1.791-1.115-3.9-1.652-5.97-1.95-3.105-.458-6.09 1.034-8.398 2.965-.378.358-.935.279-1.413.318a5.606 5.606 0 0 1-1.114-1.055c.02-.597-.06-1.293.438-1.75 2.07-2.09 4.875-3.305 7.74-3.802 2.647-.299 5.393.12 7.861 1.154.1.02.318.04.418.06z" fill="#fff"></path><path fill-rule="evenodd" clip-rule="evenodd" d="M80.318 33.47c.04-.04.06-.099.179-.179.935-.835 1.85-1.651 3.701-1.572.736.04 1.413.338 1.93.816 1.99 1.752 4.22 3.443 6.428 5.135 1.453 1.114 2.885 2.209 4.358 3.403h.02a48.452 48.452 0 0 0 1.93 1.493c1.194.895 2.408 1.771 3.522 2.866.657.617.975 1.472.936 2.328l.02.478c.019 3.184.039 6.389-.02 9.573.079 1.691.059 3.403.02 5.115-.02 1.512-.04 3.045.019 4.597v.12c.02 1.213 0 2.408-.019 3.582-.02 1.294-.04 2.587 0 3.88.059 1.394.019 2.807 0 4.2-.02 1.214-.04 2.408 0 3.622.059 1.493.039 2.986 0 4.478-.02 1.394-.04 2.767.019 4.14v.06c.04 1.134.02 2.288-.019 3.423-.02 1.035-.04 2.05 0 3.085.079 1.652-1.234 3.065-2.906 3.124-.079.02-.179 0-.278 0-1.155-.02-2.329-.02-3.483 0-1.552.02-3.084.04-4.597-.02-2.209.04-4.437.02-6.666.02-2.229-.02-4.458-.02-6.686.02h-.18c-1.69-.079-3.343-.04-4.994-.02-1.373.02-2.746.04-4.14 0h-.079c-1.373-.059-2.726-.02-4.1 0-1.392.02-2.805.04-4.218 0-1.313-.059-2.607-.02-3.92 0-1.393.02-2.786.06-4.18 0h-.02c-1.313-.059-2.606-.02-3.92 0-1.392.02-2.785.06-4.198 0-1.294-.059-2.587-.02-3.86 0-1.414.02-2.807.06-4.22 0-1.313-.059-2.626-.02-3.94 0-1.492.02-2.984.06-4.477-.02h-.756c-1.134-.019-2.269-.039-3.343.06a2.992 2.992 0 0 1-3.304-2.707c-.02-.139-.02-.278-.02-.437V84.679 59.98c0-1.652 1.334-2.985 2.966-3.025 1.651-.04 3.323-.02 4.994 0l.637.02c.08-1.334.18-2.607.279-3.861.199-2.687.398-5.354.457-7.762 0-.06 0-.14.02-.219.22-2.328.378-4.836.518-7.324.06-1.055.12-2.09.179-2.965.1-1.672 1.552-2.926 3.223-2.826h.04c1.97.04 3.92.04 5.87.02 1.812 0 3.602-.02 5.394.02a3.037 3.037 0 0 1 2.985 2.846v-.02c.06 1.035.179 2.428.278 3.8.14 1.892.279 3.782.378 5.952.219 1.87.319 3.84.398 5.811.08 1.731.16 3.443.358 5.214.02.12.02.24.02.359.02.238.04.577.06.935h6.129c2.667 0 5.353.02 8.02 0V55.88c-.02-2.766-.02-5.552.04-8.299 0-.796.318-1.492.815-2.01v-.02c.756-.816 1.572-1.413 2.388-2.01.378-.279.756-.557.876-.637l.02-.02v-.02c1.154-.875 1.691-1.293 2.228-1.711 1.851-1.433 3.702-2.866 5.473-4.319l.06-.04a59.83 59.83 0 0 1 1.174-.895c.835-.598 1.671-1.214 2.388-1.891.238-.219.497-.398.796-.538zm11.84 64.722c-4.497.08-8.995-.04-13.492.04-3.065-.12-6.13.06-9.194-.02-2.786-.12-5.572.1-8.358 0-2.686-.1-5.392.1-8.099 0-2.706-.1-5.412.1-8.119 0-2.706-.1-5.393.1-8.099 0-2.786-.1-5.592.12-8.378 0-1.512-.02-3.024-.08-4.537.06V59.98c2.826-.06 5.632.04 8.457.02.18-4.856.757-9.712.876-14.588.338-3.443.498-6.906.716-10.37 3.821.08 7.642-.039 11.463.02.219 3.305.517 6.608.656 9.912.438 3.662.359 7.364.777 11.026.06 1.333.179 2.647.199 3.98 6.686-.04 13.372.06 20.058-.02 0-4.12-.06-8.22.02-12.32.876-.915 1.97-1.591 2.965-2.387 2.587-2.01 5.194-4 7.741-6.07 1.274-.976 2.607-1.871 3.781-2.966.856-.418 1.453-1.512 2.468-1.473 3.502 3.065 7.323 5.752 10.945 8.678 1.75 1.433 3.661 2.627 5.293 4.199.04 3.423.06 6.846 0 10.29.159 3.243-.1 6.487.04 9.731.059 2.508-.12 5.036-.02 7.563.099 2.627-.08 5.235 0 7.842.119 2.886-.12 5.752.02 8.637.079 2.19-.1 4.359-.02 6.528-2.707-.06-5.433.1-8.16-.02zM78.726 63.244c-.02-2.19-.06-4.378 0-6.548-1.115-.02-2.23-.04-3.324-.04-.02 2.23.12 4.459.04 6.688 1.095-.04 2.19-.06 3.284-.1zm3.303-6.587c.02 2.229.08 4.438.02 6.667 1.114-.02 2.229-.02 3.323-.02-.12-2.21 0-4.438.04-6.648h-3.383zm6.647 6.587c1.114.08 2.208.06 3.303.08-.02-2.23 0-4.458.02-6.667-1.095-.02-2.19 0-3.284.02.02 2.189-.1 4.378-.04 6.567zM32.2 68.26c0 1.114-.02 2.228.06 3.343 2.189.1 4.378-.02 6.587 0 .02-1.114.02-2.21.02-3.324-2.23.02-4.438.12-6.667-.02zm10.01.06c.04 1.114.06 2.208-.02 3.323 2.209 0 4.398-.08 6.607-.04.04-1.114.02-2.21.04-3.324-2.21 0-4.418.06-6.627.04zm26.506-.02c-2.189.059-4.378 0-6.567-.04-.06 1.114-.02 2.228-.04 3.323 2.21-.02 4.438.1 6.647.06-.04-1.115-.02-2.23-.04-3.344zm6.647 6.647c1.134-.02 2.248-.06 3.363-.08-.1-2.19.02-4.398-.04-6.608-1.075.06-2.17.1-3.244.04.04 2.21-.06 4.438-.08 6.648zm-16.557-3.324c-.06-1.095-.04-2.21-.04-3.324-2.209.04-4.398-.02-6.606 0 .02 1.115.02 2.23-.04 3.344 2.229-.1 4.457-.02 6.686-.02zm26.586 3.304c.02-2.21-.1-4.399-.04-6.608-1.094 0-2.189.04-3.283-.02 0 2.21-.06 4.419-.04 6.648 1.114-.02 2.249-.02 3.363-.02zm3.284-6.648c-.02 2.21.08 4.399.04 6.608 1.094.04 2.188.06 3.283.04.02-2.21-.04-4.419-.02-6.628-1.095.04-2.209.04-3.303-.02zm-9.93 18.29c-.08-2.189-.08-4.398-.02-6.607-1.115-.02-2.249-.06-3.363-.02.04 2.19.119 4.379.08 6.568 1.114-.04 2.208.06 3.303.06zm9.95.02c1.074-.1 2.188-.1 3.283-.06-.02-2.209.02-4.418.02-6.607-1.095-.02-2.19.02-3.284.02.06 2.21-.1 4.438-.02 6.647zm-3.324-.08c-.12-2.189.04-4.378.02-6.587h-3.363c-.02 2.19.08 4.398.02 6.588 1.094 0 2.209-.02 3.323 0z" fill="#fff"></path>
		</symbol>
	
		<symbol id="why_price" viewBox="0 0 120 120">
			<path fill-rule="evenodd" clip-rule="evenodd" d="M85.685 2.964c15.214 4.171 25.204 10.348 30.408 26.952 5.224 16.524 4.33 34.3 2.364 51.3-2.841 16.803-10.865 29.395-26.675 34.002-18.77 6.376-44.788 6.376-63.558 0-15.81-4.607-23.834-17.2-26.674-34.002-1.966-17-2.88-34.776 2.363-51.3C9.097 13.312 19.108 7.136 34.322 2.964c15.67-3.952 35.692-3.952 51.363 0z" fill="#E1322D"></path><path fill-rule="evenodd" clip-rule="evenodd" d="M61.115 18.456c.715.02 1.43.1 2.165.1l.218.039c.695.04 1.37.119 2.046.119.199 0 .397.02.576.06-.159 0-.338 0-.497.02 1.212.079 2.384.377 3.556.595l.06.02c.079.1.178.14.297.08h.08c.06.119.159.139.298.099l.079-.02.199.1.06.02c.436.118.893.238 1.33.337.675.218 1.35.457 2.026.675l.06.02c.456.199.953.318 1.41.516.337.12.655.298 1.013.358l.198.119c.596.318 1.232.556 1.847.834l.199.08c.04.198.278.258.457.278l.179.099c3.177 1.629 6.177 3.654 8.838 6.058 4.469 3.992 7.945 9.036 10.388 14.498l.02.06c.198.596.496 1.132.695 1.728.298.973.715 1.906.973 2.88.04.297.139.595.238.893.179.536.259 1.132.477 1.668l.02.14.06.198.019.08c.179 1.151.437 2.284.557 3.455.059.477.099.954.178 1.43l.02.18c-.02.297.02.595.06.893l.02.218c.039.676.059 1.35.079 2.026v1.39c-.02.636-.06 1.272-.06 1.907l-.039.238c-.06.298-.08.596-.06.894l-.02.159c-.198 1.609-.417 3.198-.754 4.787l-.06.317-.02.14c-.099.079-.139.198-.079.317v.06a.54.54 0 0 0-.179.576l-.02.06c-.278 1.131-.636 2.243-1.013 3.356l-.02.06c-.258.655-.457 1.33-.735 1.966l-.099.258c-.218.357-.338.774-.516 1.152-.199.476-.437.913-.656 1.37l-.04.06a42.742 42.742 0 0 1-3.892 6.375c-.696.933-1.47 1.807-2.185 2.721l-.08.08c-.735.695-1.37 1.489-2.105 2.164-.437.437-.934.815-1.33 1.271l-.1.08c-.834.655-1.649 1.37-2.503 2.026-1.211.913-2.482 1.728-3.754 2.522a50.826 50.826 0 0 1-2.9 1.569c-.814.477-1.727.755-2.542 1.212-.735.258-1.45.536-2.184.814l-.06.02a49.978 49.978 0 0 1-3.357.993l-.06.02a.564.564 0 0 0-.575.178h-.06c-.139-.039-.238-.019-.318.1h-.06c-.118-.06-.218-.04-.317.059h-.1a41.52 41.52 0 0 1-4.965.755h-.08c-.317.02-.635.04-.953.079l-.159.02c-1.728.1-3.475.1-5.203.02l-.16-.04a5.375 5.375 0 0 0-.972-.039l-.18-.04c-1.27-.159-2.542-.298-3.813-.536-.476-.1-.953-.219-1.45-.278l-.139-.02c-.536-.219-1.132-.278-1.668-.477-.318-.099-.636-.198-.973-.258-.497-.12-.974-.298-1.45-.457l-.06-.02c-.953-.357-1.907-.675-2.84-1.072l-.12-.06c-3.177-1.37-6.196-3.118-8.917-5.223-3.873-3-7.27-6.634-9.852-10.805-.774-1.171-1.41-2.423-2.065-3.654l-.02-.06c-.338-.695-.675-1.37-.973-2.065l-.06-.14a44.65 44.65 0 0 1-.457-1.111c-.238-.537-.377-1.093-.616-1.629l-.02-.08c-.198-.575-.397-1.171-.595-1.767-.12-.497-.239-1.013-.397-1.49l-.02-.099a5.61 5.61 0 0 0-.258-.993l-.04-.139c-.1-.695-.258-1.39-.358-2.085l-.02-.06c-.198-1.231-.317-2.483-.417-3.714l-.02-.238c-.04-.616-.06-1.232-.099-1.828V59.41c.04-.715.06-1.41.1-2.125l.02-.139c.039-.318.059-.655.039-.973l.02-.1c.139-1.092.238-2.184.437-3.277.08-.476.159-.933.238-1.39v-.08c.1-.099.12-.198.08-.317v-.06c.099-.08.139-.178.08-.297l.019-.08c.1-.1.139-.238.08-.377v-.08l.099-.198.02-.06c.278-1.132.595-2.264.993-3.357l.02-.06c.357-.932.655-1.886 1.072-2.8l.02-.04c.298-.674.616-1.35.914-2.005l.02-.06c.258-.357.397-.774.615-1.152.894-1.648 1.867-3.257 3-4.766.337-.517.754-.993 1.111-1.51l.06-.099c.179 0 .318-.179.278-.377l.1-.06c.695-.735 1.33-1.53 2.025-2.244a42.661 42.661 0 0 1 10.646-8.064c.318-.179.656-.298.954-.516l.06-.02c.675-.318 1.37-.655 2.065-.953l.298-.16c.794-.317 1.589-.575 2.383-.913l.06-.02.218-.04.08-.04c1.35-.516 2.78-.794 4.17-1.19l.06-.02c.12.059.219.039.298-.06l.08-.02c1.767-.298 3.535-.616 5.303-.795l.258-.079c.655 0 1.31-.04 1.966-.04h.219c.715.04 1.43.02 2.165.06zM47.787 57.503c-.575 0-1.171 0-1.747.04-.576-.02-1.133-.02-1.689.118-.476.1-.913.318-1.35.537-.16.099-.358.198-.457.357l-.1.08c-.337.159-.496.496-.695.774-.516.914-.536 2.006-.337 3h.08l.02.079c.059.635.555 1.112.992 1.509h.08l.06.04c.059.218.258.337.456.377l.08.02c-.06.139.198.258.278.139l.06.08c.694.218 1.43.297 2.144.317.298 0 .596.1.874 0l.14.02c.357.12.774.06 1.151.14 0 1.568.04 3.137-.02 4.706-.893.02-1.787 0-2.7 0v.08h-.14a.565.565 0 0 0-.397-.04c-.377.06-.755.139-1.093.337l-.079.06c-1.31.536-2.185 1.927-2.165 3.337 0 .973.457 1.926 1.192 2.582.179.139.318.337.536.397l.1.06c.119.198.357.238.536.317 1.112.378 2.304.219 3.456.358.238.06.556-.06.774.08 0 1.29.02 2.581 0 3.872h.06c-.06.477-.04.973-.02 1.45l.1.1-.12-.02c-.08 1.21.437 2.422 1.35 3.237h.04l.199.139c.08.178.278.238.437.317.477.219.993.378 1.53.358l.138-.04c1.192 0 2.324-.695 3-1.648v-.06c.238-.178.278-.496.377-.774v-.08c.139-.437.159-.893.139-1.35l.02-.06v-.437l.08-.139c0-.735.059-1.47.039-2.185-.04-.893-.04-1.807 0-2.7 2.125-.06 4.25 0 6.376-.02.278-.02.556-.08.834-.1.516 0 1.033-.02 1.549 0l.02-.06.139-.02c.159.08.338.08.516.08 1.172-.02 2.344-.02 3.516-.04.894 0 1.827.06 2.72-.079.22-.12.458-.218.597-.437l.139-.1.06.02c.397-.277.873-.555 1.092-1.012l.06-.1c.496-.536.635-1.29.695-2.006.06-1.29-.716-2.522-1.848-3.138-.456-.198-.874-.516-1.39-.576-5.025-.02-10.05-.02-15.075-.02-.06-.317-.04-.655-.04-.973.04-1.231-.02-2.482.02-3.714.834-.02 1.668-.04 2.503-.02v-.079c.516.06 1.052.02 1.589.02 1.569.04 3.138-.06 4.707-.04v-.06c.516.06 1.053.02 1.569.02 1.152.04 2.284-.02 3.436-.079 1.609.02 3.178-.397 4.668-.993 1.032-.417 2.065-.914 2.979-1.569l.08-.06c.297-.119.536-.357.794-.556.615-.437 1.172-.973 1.708-1.51.616-.654 1.251-1.33 1.688-2.124l.08-.08c.158-.159.317-.377.337-.596l.02-.06c.14-.079.219-.218.298-.357.755-1.35 1.37-2.82 1.708-4.35.457-1.767.497-3.594.338-5.401-.14-.715-.239-1.43-.417-2.126-.397-1.41-.954-2.78-1.708-4.051a.574.574 0 0 0-.219-.219l-.02-.06c.02-.138-.099-.237-.139-.357h-.08l-.039-.04c-.04-.258-.238-.436-.377-.655a18.089 18.089 0 0 0-3.675-3.714c-.1-.08-.198-.139-.318-.178l-.06-.08c-1.072-.814-2.303-1.35-3.554-1.807-.715-.258-1.45-.497-2.205-.556-.04-.18-.397-.18-.517-.04l-.079-.02-.04-.06c-.754-.099-1.529-.08-2.284-.119-.933.02-1.867-.1-2.8 0-.398-.08-.775-.02-1.172-.04h-1.57c-.257 0-.496 0-.754-.02-1.033 0-2.085.02-3.118 0-.278.02-.556.04-.854.02h-1.57c-.436.02-.893-.04-1.35.02-.814-.06-1.629.02-2.443.02-.834.04-1.748 0-2.503.437l-.159.12c-.297.04-.496.297-.715.496-.297.318-.635.675-.734 1.112l-.02.06-.1.02-.04.079.04.08c-.06.158-.079.357-.119.536-.08.615-.02 1.231-.1 1.847-.019.834-.019 1.668-.019 2.502-.04.239-.02.497-.02.735 0 2.681-.04 5.362-.02 8.044-.02 2.78.02 5.541-.02 8.322zM58.95 21.414h-.219l-.735.02c-.238 0-.496.02-.774.02-.12.04-.258.06-.397.08-.894.079-1.709.198-2.523.317-.337.06-1.231.218-2.205.377l-.139.06c-.119.04-.238.06-.357.1l-.477.059c-.357.1-.695.179-1.032.278-.795.198-1.59.397-2.324.675l-.08.04c-.179.06-.338.12-.536.159h-.02c-.417.159-.735.278-1.053.397-.238.1-.496.199-1.092.437-.08.04-.179.08-.258.12-.338.138-.854.396-1.37.635l-.418.198c-.278.16-.576.298-.854.437l-.238.12a40.07 40.07 0 0 0-5.164 3.316 40.068 40.068 0 0 0-4.668 4.171l-.04.02c-.357.377-.715.774-1.072 1.191l-.556.636c-.1.179-.219.358-.358.517-.119.158-.278.317-.417.436-.119.16-.258.338-.377.497-.14.179-.278.338-.417.556l-.1.14a35.57 35.57 0 0 0-1.45 2.124 63.62 63.62 0 0 0-1.33 2.304c-.06.12-.1.179-.12.238-.138.278-.277.576-.476.894-.179.437.1-.218-.199.437-.178.417-.377.834-.536 1.212-.04.079-.08.178-.12.258l-.019.04c-.218.496-.437 1.092-.655 1.688l-.338.933a17.444 17.444 0 0 0-.477 1.45 55.337 55.337 0 0 0-.417 1.55c-.02.158-.04.337-.08.496-.02.08-.04.159-.059.218l-.02.04c-.02.119-.04.238-.08.357 0 .06-.02.14-.039.199-.02.139-.08.298-.12.417l-.059.318-.119.715v.04c-.119.615-.198 1.29-.278 1.946-.02.258-.06.496-.12 1.013 0 .159 0 .337-.019.516 0 .278-.04.537-.06.755l-.02.02-.059 1.728v1.748c.02.277.04.695.04 1.092l.02.437c.02.1.04.198.04.298.059.655.099 1.25.158 1.767.06.596.14 1.132.199 1.59l.02.099.02.099c.02.178.099.576.178.953.04.258.1.517.16.914.059.198.118.377.158.556.04.119.08.298.12.536.079.258.158.536.218.814l.178.695.1.318c.119.358.238.715.377 1.093.02.04.04.099.06.159.139.317.238.635.337.933l.16.477.099.198c.139.318.278.656.437 1.053l.04.08c.138.337.436.953.714 1.568l.537 1.013c.496.954.993 1.887 1.51 2.662l.098.159a35.262 35.262 0 0 0 4.012 5.282c1.55 1.709 3.278 3.278 5.105 4.708v.02a39.726 39.726 0 0 0 3.913 2.641c1.39.814 2.82 1.53 4.27 2.165l.218.1c.616.257 1.212.476 1.808.694.258.08.496.179.755.258l.238.08c.298.12.596.218.973.318.179.04.417.08.656.159.218.06.437.119.655.198l.437.12c.338.079.675.158 1.033.277.377.06.695.12 1.033.199l.357.06v.02c.815.139 1.927.278 3.059.416l.556.08h.437l.636.06.218.04c.795.039 1.55.059 2.264.059.715 0 1.47-.02 2.245-.06l.06-.02c.238-.02.456-.06.695-.06l.476-.039a46.37 46.37 0 0 0 2.364-.278c.675-.1 1.35-.218 2.046-.357.06-.04.139-.06.218-.08.12-.04.258-.08.377-.1.06 0 .12-.02.16-.039l.357-.12c.278-.078.556-.138.854-.138.417-.12.814-.238 1.211-.358.477-.139.974-.297 1.49-.476.278-.1.536-.179.794-.278.398-.16.775-.298 1.272-.477.397-.199.774-.358 1.171-.536.358-.16.735-.318 1.033-.497.06-.04.14-.08.219-.119.357-.179.814-.417 1.35-.715a23.46 23.46 0 0 0 1.232-.675l.04-.02c.476-.298.993-.616 1.827-1.172h.02c.576-.397 1.152-.794 1.648-1.191h.02l.04-.04c.377-.258.874-.675 1.37-1.093.278-.238.576-.476.874-.715l.14-.119c.238-.258.496-.476.754-.715.12-.1.218-.198.338-.318l.198-.198c.318-.298.636-.616.934-.954.318-.337.635-.655.973-.993.12-.158.457-.575.794-.973.438-.516.855-1.032 1.291-1.628v.02l.02-.04a34.176 34.176 0 0 0 1.927-2.86 43.844 43.844 0 0 0 1.668-2.98l.02-.039c.12-.278.08-.179.179-.358.02-.079.06-.158.1-.218.158-.318.297-.636.337-.735l.02-.02c.04-.099.02-.08.1-.278.118-.278.237-.576.436-.913l.06-.18c.04-.098.178-.476.317-.873.1-.258.18-.516.398-1.013.159-.477.317-.973.476-1.49.1-.377.219-.774.338-1.23.02-.279.06-.577.159-.855.02-.06.04-.139.06-.198l.04-.14h.02c.019-.139.079-.278.118-.397l.02-.099c.14-.695.278-1.43.397-2.205.12-.774.219-1.549.298-2.303l.02-.04v-.378c.02-.297.04-.536.08-.754.02-.437.04-.973.06-1.51l.02-.099v-1.45l-.02-.715a38.21 38.21 0 0 1-.06-1.072v-.08c-.04-.218-.06-.457-.08-.655v-.397l-.119-.835-.06-.575-.02-.12c-.06-.635-.178-1.31-.297-2.006-.08-.357-.14-.715-.199-1.092l-.02-.04c-.02-.08-.04-.139-.06-.218a13.99 13.99 0 0 1-.278-1.053c-.04-.159-.079-.337-.119-.477-.06-.139-.099-.278-.139-.397l-.06-.178a6.7 6.7 0 0 1-.158-.676c-.1-.357-.278-.814-.437-1.29-.12-.319-.238-.636-.437-1.252-.02-.06-.14-.338-.258-.596-.12-.278-.239-.556-.378-.973a42.492 42.492 0 0 0-4.21-7.349c-1.59-2.204-3.377-4.23-5.403-6.037l-.02-.02a34.59 34.59 0 0 0-3.833-3.019 40.116 40.116 0 0 0-4.171-2.522 3.412 3.412 0 0 1-.834-.358 6.278 6.278 0 0 1-.378-.238l-.278-.14a12.736 12.736 0 0 1-1.31-.595c-.298-.08-.537-.199-.775-.298l-.179-.06-.1-.06-.476-.158c-.298-.1-.596-.199-.894-.338-.377-.119-.754-.238-1.132-.377-.119-.04.06.02-.675-.219l-.556-.119-.616-.178a2.699 2.699 0 0 1-.695-.14c-.1-.02-.219-.04-.318-.059-.139-.04-.278-.1-.397-.159l-.556-.1c-.735-.158-1.47-.297-2.145-.357-.199 0-.398-.04-.576-.08-.338-.019-.616-.039-.894-.059l-.576-.06a2.44 2.44 0 0 1-.397-.039h-.02c-.437 0-.815-.02-1.192-.04l-.655-.04-.18-.02c-.416-.02-.674-.02-.933-.02-.377-.019-.734-.019-1.032-.039h-.04zm-.536 8.62H61.83c.198.02.377.02.516.02h1.907c.298 0 .616-.02.953.02.616-.04 1.192-.02 1.788 0 .258 0 .536.02.775.02.119-.02.238-.02.357 0 .358.02.516.02.675.02.497.02.974.039 1.51.079h.417c.12 0 .258 0 .377.02.278.04.537.119.795.218.298.06.596.12.874.199.397.119.794.238 1.191.377l.14.04c.695.258 1.41.556 2.144.913.735.358 1.45.775 2.126 1.291.08.06.159.1.238.14.08.059.14.099.219.158.814.616 1.569 1.291 2.303 2.026.656.655 1.272 1.37 1.848 2.145.06.08.119.159.178.258.14.159.259.318.378.497.178.218.318.456.437.715.08.119.178.278.258.417.437.755.794 1.49 1.092 2.204.298.676.556 1.45.795 2.265.02.079.04.139.06.218.178.695.297 1.31.397 1.926.02.16-.04-.278.08.457 0 .08.019.179.019.259.1 1.052.139 2.085.08 3.118a16.326 16.326 0 0 1-.457 3.197 18.634 18.634 0 0 1-.835 2.701 22.085 22.085 0 0 1-1.191 2.483c-.08.159-.18.318-.318.477a.735.735 0 0 1-.1.218 5.635 5.635 0 0 1-.536.755c-.516.814-1.112 1.47-1.688 2.105-.04.06-.1.12-.139.159l-.06.06-.079.079c-.258.278-.556.556-.953.914a22.2 22.2 0 0 1-1.093.913l-.04.02-.079.06a4.89 4.89 0 0 1-.914.635c-.536.378-1.112.715-1.708 1.033-.596.298-1.191.556-1.787.814-.735.278-1.47.537-2.264.735l.04.02c.059.04.118.06.178.1l.12.059.237.119a6.634 6.634 0 0 1 2.563 2.463c.556.973.893 2.085.874 3.237.02.1 0 .219 0 .338a7.967 7.967 0 0 1-.298 1.688 5.386 5.386 0 0 1-1.013 1.946c-.437.715-.974 1.113-1.49 1.49-.04.04-.1.08-.159.12l-.159.118h-.02l-.08.04c-.337.318-.694.496-1.032.675-.278.14-.616.258-.953.318-.854.12-1.689.12-2.523.12H66.22l-1.29.019h-1.093c-.377-.02-.755 0-1.132 0h-.04c-.1.02-.199.02-.278.04-.159.02-.318.04-.616.06v-.02l-.159.02h-3.396c0 .397 0 .774-.02 1.151l-.02.636c.02.258-.02.536-.08.814v.1c0 .238 0 .496-.02.734-.039.318-.079.656-.178 1.013-.02.179-.08.358-.139.536v.02c.02-.04 0-.02 0 0-.139.497-.298 1.013-.755 1.53a7.029 7.029 0 0 1-2.343 2.105 6.452 6.452 0 0 1-2.721.794c-.14.04-.278.04-.417.06a5.41 5.41 0 0 1-1.61-.179 6.39 6.39 0 0 1-1.27-.437l-.16-.06c-.377-.178-.754-.377-1.132-.754-.059-.06-.119-.1-.178-.159-.795-.695-1.41-1.589-1.828-2.582-.397-.973-.595-2.026-.516-3.098v-.954c-.02-.139-.02-.278-.02-.417v-.993c-.655-.06-1.33-.139-2.085-.397-.1-.02-.179-.06-.278-.1h-.02c-.06-.02-.04-.02-.02 0-.397-.138-.794-.297-1.212-.655a4.124 4.124 0 0 1-.695-.576l-.08-.06a6.926 6.926 0 0 1-1.608-2.184 6.327 6.327 0 0 1-.596-2.602v-.02c-.02-1.31.378-2.601 1.073-3.694a6.491 6.491 0 0 1 2.602-2.303l.06-.04c.098-.06.198-.12.297-.16a2.283 2.283 0 0 1-.497-.237 1.994 1.994 0 0 1-.476-.318 1.652 1.652 0 0 1-.358-.259c-.08-.079-.159-.139-.238-.218-.08-.06-.159-.12-.218-.179-.338-.298-.696-.635-1.033-1.112v-.02a5.031 5.031 0 0 1-.715-1.33 3.278 3.278 0 0 1-.278-.815 8.36 8.36 0 0 1-.12-2.542c.1-.854.358-1.708.815-2.502l.1-.18c.317-.516.654-1.072 1.35-1.529.298-.277.576-.436.854-.595.06-.04.119-.06.198-.1.239-.119.497-.258.854-.417a7.624 7.624 0 0 1 1.192-.397v.02c.397-.1.755-.159 1.112-.179v-1.628-3.734-4.668c0-1.112.02-2.224.02-3.316a2.08 2.08 0 0 1 0-.497c0-.179 0-.357.02-.536v-.417c0-.675 0-1.35.02-1.966 0-.08.02-.18.02-.279.02-.139.02-.357.04-.595 0-.417 0-.834.04-1.212h.02c0-.08.019-.159.039-.238v-.04c-.02.04 0 .02 0 0l.02-.12c.02-.416.119-.853.337-1.27l.02-.04c.08-.139.16-.278.239-.397.079-.14.159-.298.258-.437.04-.08.1-.159.159-.238.218-.318.476-.596.715-.854.06-.06.139-.12.218-.199l.02-.02c.377-.357.755-.735 1.41-.973 1.232-.695 2.344-.735 3.416-.755l.378-.02h.119c.199 0 .496-.02.775-.02.516-.02 1.032-.04 1.608 0 .358-.04.676-.02.994-.02h.337l.874-.02.854.02c.159 0 .417 0 .656-.02zm-13.407 5.382c0-.04.02-.08 0 0zm-4.47 43.118l-.039-.02s.08.06.04.04v-.02zm1.908 1.212c0 .02 0 .02 0 0zm15.313 5.64c-.02.02-.02.06 0 0zM83.181 37.98c.02.04 0 0-.02 0h.02z" fill="#fff"></path><path fill-rule="evenodd" clip-rule="evenodd" d="M56.11 40.382c2.741 0 5.502-.04 8.243.04 1.668.02 3.356.04 5.025.14l.138.019c.279.08.557.12.835.199 2.463.893 4.488 2.9 5.362 5.362.378 1.212.358 2.502.338 3.754v.1c-.04.237-.08.476-.06.714l-.02.06c-.516 2.562-2.323 4.786-4.627 5.978a6.034 6.034 0 0 1-2.205.655c-1.033.06-2.085.12-3.138.1-1.192.06-2.403-.02-3.595.02-1.092.059-2.164-.06-3.237 0-.775.059-1.55-.04-2.304-.02-.576 0-1.132.06-1.688.02-.04-.875.02-1.729 0-2.602-.02-.835-.02-1.669 0-2.503 0-.913-.02-1.847 0-2.76.02-1.033-.04-2.046 0-3.06 0-.476.04-.972 0-1.449l-.1.159c-.02.457 0 .913.02 1.39h-.06c.06-.516-.039-1.053.04-1.569.1-.397.06-.814.08-1.211-.02-.477.02-.934-.02-1.39.02-.2.02-.378.02-.557.02-.536.06-1.052.12-1.589h.833zm2.126 3.02h-.06V44.831c.06.555.04 1.052.04 1.548l-.02.338c-.02.516-.02.993 0 1.49 0 .496.02 1.013 0 1.509-.02.556-.02 1.112 0 1.648v1.113c0 .417 0 .814-.02 1.191 0 .278.02.556.02.835.238.02.496.02.735 0h.06c.615-.04 1.23-.02 1.846 0 .457 0 .894.02 1.37-.02v.02l.12-.02c.596 0 1.192 0 1.787.02.576 0 1.152.02 1.748-.02h.199c.635.02 1.39-.02 2.125-.06l.735-.04c.139-.02.317-.06.496-.099.179-.06.338-.12.517-.218l.04-.02a6.02 6.02 0 0 0 2.005-1.669 5.44 5.44 0 0 0 .974-1.946c.02-.278.04-.516.079-.735 0-.496.02-.973-.02-1.49a4.377 4.377 0 0 0-.198-1.151 5.655 5.655 0 0 0-1.311-2.026 5.942 5.942 0 0 0-2.106-1.37l-.08-.02c-.118-.02-.237-.04-.376-.08-.775-.04-1.49-.06-2.145-.08-.815-.02-1.61-.039-2.404-.039h-.119c-2.026-.04-4.031-.04-6.037-.04z" fill="#fff"></path>
		</symbol>
	
</svg>
